G04 ================== begin FILE IDENTIFICATION RECORD ==================*
G04 Layout Name:  C:/Users/Cristiana/Desktop/PROIECT_CEF/PCB_CEFF.brd*
G04 Film Name:    BOTTOM*
G04 File Format:  Gerber RS274X*
G04 File Origin:  Cadence Allegro 16.6-2015-S059*
G04 Origin Date:  Thu Dec 18 14:36:46 2025*
G04 *
G04 Layer:  ETCH/BOTTOM*
G04 Layer:  PIN/BOTTOM*
G04 Layer:  VIA CLASS/BOTTOM*
G04 *
G04 Offset:    (0.0000 0.0000)*
G04 Mirror:    No*
G04 Mode:      Positive*
G04 Rotation:  0*
G04 FullContactRelief:  No*
G04 UndefLineWidth:     0.1000*
G04 ================== end FILE IDENTIFICATION RECORD ====================*
%FSLAX25Y25*MOMM*%
%IR0*IPPOS*OFA0.00000B0.00000*MIA0B0*SFA1.00000B1.00000*%
%ADD10C,.8*%
%ADD11C,.4064*%
G75*
%LPD*%
G75*
G54D10*
X162000Y2376000D03*
X963990Y952500D03*
X1206500Y2159000D03*
X648000Y3294000D03*
X1079500Y3302000D03*
X1397000Y1905000D03*
X1520190Y2861310D03*
X1460500Y3492500D03*
X2700000Y900000D03*
X2476500Y3302000D03*
X2730500Y3746500D03*
G54D11*
G01X162000Y2376000D02*
X216000Y2430000D01*
Y2862000D01*
X648000Y3294000D01*
G01X1397000Y1905000D02*
X1524000Y1778000D01*
Y1651000D01*
X1270000Y1397000D01*
Y1016000D01*
X1143000Y889000D01*
X1027490D01*
X963990Y952500D01*
G01X1397000Y1905000D02*
Y2041520D01*
X1279520Y2159000D01*
X1206500D01*
G01X1079500Y3302000D02*
X1270000D01*
X1460500Y3492500D01*
G01D02*
Y3175000D01*
X1520190Y3115310D01*
Y2861310D01*
G01X2476500Y3302000D02*
X2800000Y2978500D01*
Y2400000D01*
X2300000Y1900000D01*
Y1400000D01*
X2700000Y1000000D01*
Y900000D01*
G01X2476500Y3302000D02*
Y3556000D01*
X2667000Y3746500D01*
X2730500D01*
M02*
