G04 ================== begin FILE IDENTIFICATION RECORD ==================*
G04 Layout Name:  C:/Users/Cristiana/Desktop/PROIECT_CEF/PCB_CEFF.brd*
G04 Film Name:    FAB*
G04 File Format:  Gerber RS274X*
G04 File Origin:  Cadence Allegro 16.6-2015-S059*
G04 Origin Date:  Thu Dec 18 14:36:46 2025*
G04 *
G04 Layer:  MANUFACTURING/NCDRILL_LEGEND*
G04 Layer:  MANUFACTURING/NCDRILL_FIGURE*
G04 Layer:  MANUFACTURING/XSECTION_CHART*
G04 Layer:  MANUFACTURING/NCLEGEND-1-2*
G04 Layer:  BOARD GEOMETRY/OUTLINE*
G04 Layer:  BOARD GEOMETRY/DIMENSION*
G04 *
G04 Offset:    (0.0000 0.0000)*
G04 Mirror:    No*
G04 Mode:      Positive*
G04 Rotation:  0*
G04 FullContactRelief:  No*
G04 UndefLineWidth:     0.1000*
G04 ================== end FILE IDENTIFICATION RECORD ====================*
%FSLAX25Y25*MOMM*%
%IR0*IPPOS*OFA0.00000B0.00000*MIA0B0*SFA1.00000B1.00000*%
%AMMACRO10*
1,1,.1,.635,0.0*
20,1,.1,.635,0.0,.625353,-.110267,0.0*
1,1,.1,.625353,-.110267*
20,1,.1,.625353,-.110267,.596705,-.217183,0.0*
1,1,.1,.596705,-.217183*
20,1,.1,.596705,-.217183,.549926,-.3175,0.0*
1,1,.1,.549926,-.3175*
20,1,.1,.549926,-.3175,.486438,-.40817,0.0*
1,1,.1,.486438,-.40817*
20,1,.1,.486438,-.40817,.40817,-.486438,0.0*
1,1,.1,.40817,-.486438*
20,1,.1,.40817,-.486438,.3175,-.549926,0.0*
1,1,.1,.3175,-.549926*
20,1,.1,.3175,-.549926,.217183,-.596705,0.0*
1,1,.1,.217183,-.596705*
20,1,.1,.217183,-.596705,.110267,-.625353,0.0*
1,1,.1,.110267,-.625353*
20,1,.1,.110267,-.625353,0.0,-.635,0.0*
1,1,.1,0.0,-.635*
20,1,.1,0.0,-.635,-.110267,-.625353,0.0*
1,1,.1,-.110267,-.625353*
20,1,.1,-.110267,-.625353,-.217183,-.596705,0.0*
1,1,.1,-.217183,-.596705*
20,1,.1,-.217183,-.596705,-.3175,-.549926,0.0*
1,1,.1,-.3175,-.549926*
20,1,.1,-.3175,-.549926,-.40817,-.486438,0.0*
1,1,.1,-.40817,-.486438*
20,1,.1,-.40817,-.486438,-.486438,-.40817,0.0*
1,1,.1,-.486438,-.40817*
20,1,.1,-.486438,-.40817,-.549926,-.3175,0.0*
1,1,.1,-.549926,-.3175*
20,1,.1,-.549926,-.3175,-.596705,-.217183,0.0*
1,1,.1,-.596705,-.217183*
20,1,.1,-.596705,-.217183,-.625353,-.110267,0.0*
1,1,.1,-.625353,-.110267*
20,1,.1,-.625353,-.110267,-.635,0.0,0.0*
1,1,.1,-.635,0.0*
20,1,.1,-.635,0.0,-.625353,.110267,0.0*
1,1,.1,-.625353,.110267*
20,1,.1,-.625353,.110267,-.596705,.217183,0.0*
1,1,.1,-.596705,.217183*
20,1,.1,-.596705,.217183,-.549926,.3175,0.0*
1,1,.1,-.549926,.3175*
20,1,.1,-.549926,.3175,-.486438,.40817,0.0*
1,1,.1,-.486438,.40817*
20,1,.1,-.486438,.40817,-.40817,.486438,0.0*
1,1,.1,-.40817,.486438*
20,1,.1,-.40817,.486438,-.3175,.549926,0.0*
1,1,.1,-.3175,.549926*
20,1,.1,-.3175,.549926,-.217183,.596705,0.0*
1,1,.1,-.217183,.596705*
20,1,.1,-.217183,.596705,-.110267,.625353,0.0*
1,1,.1,-.110267,.625353*
20,1,.1,-.110267,.625353,0.0,.635,0.0*
1,1,.1,0.0,.635*
20,1,.1,0.0,.635,.110267,.625353,0.0*
1,1,.1,.110267,.625353*
20,1,.1,.110267,.625353,.217183,.596705,0.0*
1,1,.1,.217183,.596705*
20,1,.1,.217183,.596705,.3175,.549926,0.0*
1,1,.1,.3175,.549926*
20,1,.1,.3175,.549926,.40817,.486438,0.0*
1,1,.1,.40817,.486438*
20,1,.1,.40817,.486438,.486438,.40817,0.0*
1,1,.1,.486438,.40817*
20,1,.1,.486438,.40817,.549926,.3175,0.0*
1,1,.1,.549926,.3175*
20,1,.1,.549926,.3175,.596705,.217183,0.0*
1,1,.1,.596705,.217183*
20,1,.1,.596705,.217183,.625353,.110267,0.0*
1,1,.1,.625353,.110267*
20,1,.1,.625353,.110267,.635,0.0,0.0*
1,1,.1,.635,0.0*
1,1,.1,.3175,0.0*
20,1,.1,.3175,0.0,-.3175,0.0,0.0*
1,1,.1,-.3175,0.0*
1,1,.1,0.0,.3175*
20,1,.1,0.0,.3175,0.0,-.3175,0.0*
1,1,.1,0.0,-.3175*
%
%ADD10MACRO10*%
%ADD11C,.1*%
G75*
%LPD*%
G75*
G36*
G01X6008000Y9378040D02*
Y9320440D01*
X6071500D01*
Y4315640D01*
X6008000D01*
Y4258040D01*
X6389000D01*
Y4315640D01*
X6325500D01*
Y9320440D01*
X6389000D01*
Y9378040D01*
X6008000D01*
G37*
G36*
G01X5500000Y4258040D02*
Y4315640D01*
X7024000D01*
Y4258040D01*
X5500000D01*
G37*
G36*
G01Y9320440D02*
Y9378040D01*
X7024000D01*
Y9320440D01*
X5500000D01*
G37*
G54D10*
X162000Y2376000D03*
X963990Y952500D03*
X1206500Y2159000D03*
X648000Y3294000D03*
X1079500Y3302000D03*
X1397000Y1905000D03*
X1520190Y2861310D03*
X1460500Y3492500D03*
X2700000Y900000D03*
X2476500Y3302000D03*
X2730500Y3746500D03*
X5541730Y1162500D03*
G54D11*
G01X-860240Y2391250D02*
Y2708750D01*
X-1005910Y2481210D01*
X-809050D01*
G01X-592520Y2708750D02*
X-624020Y2698170D01*
X-647640Y2671710D01*
X-663390Y2639960D01*
X-675200Y2597620D01*
X-679130Y2550000D01*
X-675200Y2502370D01*
X-663390Y2460040D01*
X-647640Y2428280D01*
X-624020Y2401830D01*
X-592520Y2391250D01*
X-561030Y2401830D01*
X-537400Y2428280D01*
X-521650Y2460040D01*
X-509840Y2502370D01*
X-505910Y2550000D01*
X-509840Y2597620D01*
X-521650Y2639960D01*
X-537400Y2671710D01*
X-561030Y2698170D01*
X-592520Y2708750D01*
G01X-250000Y0D02*
X-1000000D01*
G01X-750000Y2153130D02*
Y0D01*
G01X-812500Y400000D02*
X-750000Y0D01*
X-687500Y400000D01*
X-812500D01*
G01X-750000Y2946870D02*
Y4000000D01*
G01X-250000D02*
X-1000000D01*
G01X-687500Y3600000D02*
X-750000Y4000000D01*
X-812500Y3600000D01*
X-687500D01*
G01X0Y0D02*
Y4000000D01*
X4000000D01*
Y0D01*
X0D01*
G01Y4250000D02*
Y4750000D01*
G01X1436290Y4500000D02*
X0D01*
G01X400000Y4562500D02*
X0Y4500000D01*
X400000Y4437500D01*
Y4562500D01*
G01X1839760Y4341250D02*
Y4658750D01*
X1694090Y4431210D01*
X1890950D01*
G01X2107480Y4658750D02*
X2075980Y4648170D01*
X2052360Y4621710D01*
X2036610Y4589960D01*
X2024800Y4547620D01*
X2020870Y4500000D01*
X2024800Y4452370D01*
X2036610Y4410040D01*
X2052360Y4378280D01*
X2075980Y4351830D01*
X2107480Y4341250D01*
X2138970Y4351830D01*
X2162600Y4378280D01*
X2178350Y4410040D01*
X2190160Y4452370D01*
X2194090Y4500000D01*
X2190160Y4547620D01*
X2178350Y4589960D01*
X2162600Y4621710D01*
X2138970Y4648170D01*
X2107480Y4658750D01*
G01X2463710Y4500000D02*
X4000000D01*
G01Y4250000D02*
Y4750000D01*
G01X3600000Y4437500D02*
X4000000Y4500000D01*
X3600000Y4562500D01*
Y4437500D01*
G01X4400000Y845000D02*
Y3400000D01*
X16683440D01*
Y845000D01*
X4400000D01*
G01X4679520Y1638750D02*
Y1956250D01*
X4829140D01*
G01X4774010Y1802800D02*
X4679520D01*
G01X5022050Y1956250D02*
X5116530D01*
G01X5069290D02*
Y1638750D01*
G01X5022050D02*
X5116530D01*
G01X5407870Y1797500D02*
X5486620D01*
Y1702250D01*
X5462990Y1670490D01*
X5435430Y1649330D01*
X5396060Y1638750D01*
X5356690Y1649330D01*
X5329130Y1670490D01*
X5305510Y1702250D01*
X5289760Y1739290D01*
X5281880Y1781620D01*
Y1818670D01*
X5289760Y1850410D01*
X5305510Y1887460D01*
X5329130Y1919210D01*
X5352750Y1940370D01*
X5384250Y1956250D01*
X5411810D01*
X5443300Y1945670D01*
X5466930Y1924500D01*
G01X5612600Y1956250D02*
Y1728710D01*
X5628340Y1681070D01*
X5659840Y1649330D01*
X5699210Y1638750D01*
X5738580Y1649330D01*
X5770080Y1681070D01*
X5785820Y1728710D01*
Y1956250D01*
G01X5935430Y1638750D02*
Y1956250D01*
X6033850D01*
X6065350Y1940370D01*
X6085040Y1919210D01*
X6092910Y1876870D01*
X6085040Y1834540D01*
X6061410Y1808090D01*
X6033850Y1792200D01*
X5935430D01*
G01X6033850D02*
X6092910Y1638750D01*
G01X6407870D02*
X6250390D01*
Y1956250D01*
X6407870D01*
G01X6344880Y1802800D02*
X6250390D01*
G01X4400000Y1480000D02*
X16683440D01*
G01X4400000Y2115000D02*
X16683440D01*
G01X4400000Y2750000D02*
X16683440D01*
G01X5548600Y3998160D02*
Y4061660D01*
X5562150D01*
X5567560Y4058480D01*
X5571630Y4054250D01*
X5575020Y4047900D01*
X5577720Y4040490D01*
X5578400Y4029910D01*
X5577720Y4019330D01*
X5575020Y4011920D01*
X5571630Y4005570D01*
X5567560Y4001330D01*
X5562150Y3998160D01*
X5548600D01*
G01X5632930D02*
X5605830D01*
Y4061660D01*
X5632930D01*
G01X5622090Y4030970D02*
X5605830D01*
G01X5661040Y4006620D02*
X5666450Y4001330D01*
X5672550Y3998160D01*
X5677970D01*
X5683390Y4001330D01*
X5687450Y4006620D01*
X5689480Y4014040D01*
X5688130Y4021440D01*
X5684740Y4027790D01*
X5678650Y4032030D01*
X5670520Y4034140D01*
X5665780Y4038380D01*
X5663740Y4045780D01*
X5665100Y4053190D01*
X5668490Y4058480D01*
X5673230Y4061660D01*
X5677970D01*
X5682710Y4059540D01*
X5686780Y4054250D01*
G01X5723010Y4061660D02*
X5739270D01*
G01X5731140D02*
Y3998160D01*
G01X5723010D02*
X5739270D01*
G01X5791080Y4029910D02*
X5804630D01*
Y4010860D01*
X5800570Y4004510D01*
X5795830Y4000280D01*
X5789050Y3998160D01*
X5782280Y4000280D01*
X5777540Y4004510D01*
X5773470Y4010860D01*
X5770760Y4018270D01*
X5769410Y4026730D01*
Y4034140D01*
X5770760Y4040490D01*
X5773470Y4047900D01*
X5777540Y4054250D01*
X5781600Y4058480D01*
X5787020Y4061660D01*
X5791760D01*
X5797180Y4059540D01*
X5801240Y4055310D01*
G01X5827320Y3998160D02*
Y4061660D01*
X5858480Y3998160D01*
Y4061660D01*
G01X5969560Y4056370D02*
X5965500Y4059540D01*
X5960760Y4061660D01*
X5955340D01*
X5949240Y4058480D01*
X5944500Y4053190D01*
X5941110Y4046840D01*
X5938400Y4036260D01*
X5937730Y4026730D01*
X5939080Y4017210D01*
X5941110Y4010860D01*
X5945180Y4004510D01*
X5949920Y4000280D01*
X5954660Y3998160D01*
X5959400D01*
X5964140Y4000280D01*
X5968210Y4003450D01*
X5971590Y4007680D01*
G01X5996990Y3998160D02*
Y4061660D01*
X6013930D01*
X6019350Y4058480D01*
X6022730Y4054250D01*
X6024090Y4045780D01*
X6022730Y4037320D01*
X6018670Y4032030D01*
X6013930Y4028850D01*
X5996990D01*
G01X6013930D02*
X6024090Y3998160D01*
G01X6066420D02*
X6061000Y3999220D01*
X6056260Y4003450D01*
X6052200Y4009800D01*
X6049490Y4017210D01*
X6048130Y4025680D01*
Y4034140D01*
X6049490Y4042610D01*
X6052200Y4050020D01*
X6056260Y4056370D01*
X6061000Y4060600D01*
X6066420Y4061660D01*
X6071840Y4060600D01*
X6076580Y4056370D01*
X6080640Y4050020D01*
X6083350Y4042610D01*
X6084710Y4034140D01*
Y4025680D01*
X6083350Y4017210D01*
X6080640Y4009800D01*
X6076580Y4003450D01*
X6071840Y3999220D01*
X6066420Y3998160D01*
G01X6108080Y4006620D02*
X6113490Y4001330D01*
X6119590Y3998160D01*
X6125010D01*
X6130430Y4001330D01*
X6134490Y4006620D01*
X6136520Y4014040D01*
X6135170Y4021440D01*
X6131780Y4027790D01*
X6125690Y4032030D01*
X6117560Y4034140D01*
X6112820Y4038380D01*
X6110780Y4045780D01*
X6112140Y4053190D01*
X6115530Y4058480D01*
X6120270Y4061660D01*
X6125010D01*
X6129750Y4059540D01*
X6133820Y4054250D01*
G01X6163960Y4006620D02*
X6169370Y4001330D01*
X6175470Y3998160D01*
X6180890D01*
X6186310Y4001330D01*
X6190370Y4006620D01*
X6192400Y4014040D01*
X6191050Y4021440D01*
X6187660Y4027790D01*
X6181570Y4032030D01*
X6173440Y4034140D01*
X6168700Y4038380D01*
X6166660Y4045780D01*
X6168020Y4053190D01*
X6171410Y4058480D01*
X6176150Y4061660D01*
X6180890D01*
X6185630Y4059540D01*
X6189700Y4054250D01*
G01X6275720Y4006620D02*
X6281130Y4001330D01*
X6287230Y3998160D01*
X6292650D01*
X6298070Y4001330D01*
X6302130Y4006620D01*
X6304160Y4014040D01*
X6302810Y4021440D01*
X6299420Y4027790D01*
X6293330Y4032030D01*
X6285200Y4034140D01*
X6280460Y4038380D01*
X6278420Y4045780D01*
X6279780Y4053190D01*
X6283170Y4058480D01*
X6287910Y4061660D01*
X6292650D01*
X6297390Y4059540D01*
X6301460Y4054250D01*
G01X6359370Y3998160D02*
X6332270D01*
Y4061660D01*
X6359370D01*
G01X6348530Y4030970D02*
X6332270D01*
G01X6416600Y4056370D02*
X6412540Y4059540D01*
X6407800Y4061660D01*
X6402380D01*
X6396280Y4058480D01*
X6391540Y4053190D01*
X6388150Y4046840D01*
X6385440Y4036260D01*
X6384770Y4026730D01*
X6386120Y4017210D01*
X6388150Y4010860D01*
X6392220Y4004510D01*
X6396960Y4000280D01*
X6401700Y3998160D01*
X6406440D01*
X6411180Y4000280D01*
X6415250Y4003450D01*
X6418630Y4007680D01*
G01X6457580Y4061660D02*
Y3998160D01*
G01X6442000Y4061660D02*
X6473160D01*
G01X6505330D02*
X6521590D01*
G01X6513460D02*
Y3998160D01*
G01X6505330D02*
X6521590D01*
G01X6569340D02*
X6563920Y3999220D01*
X6559180Y4003450D01*
X6555120Y4009800D01*
X6552410Y4017210D01*
X6551050Y4025680D01*
Y4034140D01*
X6552410Y4042610D01*
X6555120Y4050020D01*
X6559180Y4056370D01*
X6563920Y4060600D01*
X6569340Y4061660D01*
X6574760Y4060600D01*
X6579500Y4056370D01*
X6583560Y4050020D01*
X6586270Y4042610D01*
X6587630Y4034140D01*
Y4025680D01*
X6586270Y4017210D01*
X6583560Y4009800D01*
X6579500Y4003450D01*
X6574760Y3999220D01*
X6569340Y3998160D01*
G01X6609640D02*
Y4061660D01*
X6640800Y3998160D01*
Y4061660D01*
G01X6751880Y4056370D02*
X6747820Y4059540D01*
X6743080Y4061660D01*
X6737660D01*
X6731560Y4058480D01*
X6726820Y4053190D01*
X6723430Y4046840D01*
X6720720Y4036260D01*
X6720050Y4026730D01*
X6721400Y4017210D01*
X6723430Y4010860D01*
X6727500Y4004510D01*
X6732240Y4000280D01*
X6736980Y3998160D01*
X6741720D01*
X6746460Y4000280D01*
X6750530Y4003450D01*
X6753910Y4007680D01*
G01X6778640Y3998160D02*
Y4061660D01*
G01X6807080D02*
Y3998160D01*
G01Y4029910D02*
X6778640D01*
G01X6831810Y3998160D02*
X6848740Y4061660D01*
X6865670Y3998160D01*
G01X6859580Y4020380D02*
X6837900D01*
G01X6891070Y3998160D02*
Y4061660D01*
X6908010D01*
X6913430Y4058480D01*
X6916810Y4054250D01*
X6918170Y4045780D01*
X6916810Y4037320D01*
X6912750Y4032030D01*
X6908010Y4028850D01*
X6891070D01*
G01X6908010D02*
X6918170Y3998160D01*
G01X6960500Y4061660D02*
Y3998160D01*
G01X6944920Y4061660D02*
X6976080D01*
G01X5515240Y3976990D02*
X5555880D01*
G01X5571120D02*
X5611760D01*
G01X5627000D02*
X5667640D01*
G01X5682880D02*
X5723520D01*
G01X5738760D02*
X5779400D01*
G01X5794640D02*
X5835280D01*
G01X5850520D02*
X5891160D01*
G01X5906400D02*
X5947040D01*
G01X5962280D02*
X6002920D01*
G01X6018160D02*
X6058800D01*
G01X6074040D02*
X6114680D01*
G01X6129920D02*
X6170560D01*
G01X6185800D02*
X6226440D01*
G01X6241680D02*
X6282320D01*
G01X6297560D02*
X6338200D01*
G01X6353440D02*
X6394080D01*
G01X6409320D02*
X6449960D01*
G01X6465200D02*
X6505840D01*
G01X6521080D02*
X6561720D01*
G01X6576960D02*
X6617600D01*
G01X6632840D02*
X6673480D01*
G01X6688720D02*
X6729360D01*
G01X6744600D02*
X6785240D01*
G01X6800480D02*
X6841120D01*
G01X6856360D02*
X6897000D01*
G01X6912240D02*
X6952880D01*
G01X6968120D02*
X7008760D01*
G01X5675260Y3934660D02*
Y3871160D01*
G01X5659680Y3934660D02*
X5690840D01*
G01X5731140Y3871160D02*
X5725720Y3872220D01*
X5720980Y3876450D01*
X5716920Y3882800D01*
X5714210Y3890210D01*
X5712850Y3898680D01*
Y3907140D01*
X5714210Y3915610D01*
X5716920Y3923020D01*
X5720980Y3929370D01*
X5725720Y3933600D01*
X5731140Y3934660D01*
X5736560Y3933600D01*
X5741300Y3929370D01*
X5745360Y3923020D01*
X5748070Y3915610D01*
X5749430Y3907140D01*
Y3898680D01*
X5748070Y3890210D01*
X5745360Y3882800D01*
X5741300Y3876450D01*
X5736560Y3872220D01*
X5731140Y3871160D01*
G01X5787020Y3934660D02*
Y3871160D01*
G01X5771440Y3934660D02*
X5802600D01*
G01X5825970Y3871160D02*
X5842900Y3934660D01*
X5859830Y3871160D01*
G01X5853740Y3893380D02*
X5832060D01*
G01X5885230Y3934660D02*
Y3871160D01*
X5912330D01*
G01X6010540Y3934660D02*
Y3871160D01*
G01X5994960Y3934660D02*
X6026120D01*
G01X6052200Y3871160D02*
Y3934660D01*
G01X6080640D02*
Y3871160D01*
G01Y3902910D02*
X6052200D01*
G01X6114170Y3934660D02*
X6130430D01*
G01X6122300D02*
Y3871160D01*
G01X6114170D02*
X6130430D01*
G01X6193080Y3929370D02*
X6189020Y3932540D01*
X6184280Y3934660D01*
X6178860D01*
X6172760Y3931480D01*
X6168020Y3926190D01*
X6164630Y3919840D01*
X6161920Y3909260D01*
X6161250Y3899730D01*
X6162600Y3890210D01*
X6164630Y3883860D01*
X6168700Y3877510D01*
X6173440Y3873280D01*
X6178180Y3871160D01*
X6182920D01*
X6187660Y3873280D01*
X6191730Y3876450D01*
X6195110Y3880680D01*
G01X6219160Y3871160D02*
Y3934660D01*
G01X6244900D02*
X6219160Y3895500D01*
G01X6248960Y3871160D02*
X6230670Y3913490D01*
G01X6274360Y3871160D02*
Y3934660D01*
X6305520Y3871160D01*
Y3934660D01*
G01X6359370Y3871160D02*
X6332270D01*
Y3934660D01*
X6359370D01*
G01X6348530Y3903970D02*
X6332270D01*
G01X6387480Y3879620D02*
X6392890Y3874330D01*
X6398990Y3871160D01*
X6404410D01*
X6409830Y3874330D01*
X6413890Y3879620D01*
X6415920Y3887040D01*
X6414570Y3894440D01*
X6411180Y3900790D01*
X6405090Y3905030D01*
X6396960Y3907140D01*
X6392220Y3911380D01*
X6390180Y3918780D01*
X6391540Y3926190D01*
X6394930Y3931480D01*
X6399670Y3934660D01*
X6404410D01*
X6409150Y3932540D01*
X6413220Y3927250D01*
G01X6443360Y3879620D02*
X6448770Y3874330D01*
X6454870Y3871160D01*
X6460290D01*
X6465710Y3874330D01*
X6469770Y3879620D01*
X6471800Y3887040D01*
X6470450Y3894440D01*
X6467060Y3900790D01*
X6460970Y3905030D01*
X6452840Y3907140D01*
X6448100Y3911380D01*
X6446060Y3918780D01*
X6447420Y3926190D01*
X6450810Y3931480D01*
X6455550Y3934660D01*
X6460290D01*
X6465030Y3932540D01*
X6469100Y3927250D01*
G01X6569340Y3871160D02*
Y3934660D01*
X6561210Y3921960D01*
G01Y3871160D02*
X6577470D01*
G01X6625220Y3869040D02*
X6623870Y3870100D01*
Y3872220D01*
X6625220Y3873280D01*
X6626570Y3872220D01*
Y3870100D01*
X6625220Y3869040D01*
G01X6668230Y3897620D02*
X6672970Y3905030D01*
X6677040Y3909260D01*
X6682450Y3911380D01*
X6687200Y3909260D01*
X6690580Y3905030D01*
X6693290Y3898680D01*
X6693970Y3891270D01*
X6693290Y3884920D01*
X6690580Y3878570D01*
X6686520Y3873280D01*
X6681780Y3871160D01*
X6676360Y3873280D01*
X6671620Y3879620D01*
X6668910Y3889150D01*
X6668230Y3899730D01*
X6669580Y3913490D01*
X6671620Y3920900D01*
X6675000Y3928310D01*
X6679750Y3933600D01*
X6684490Y3934660D01*
X6689230Y3932540D01*
X6692620Y3927250D01*
G01X6775250Y3871160D02*
Y3934660D01*
X6792860Y3881740D01*
X6810470Y3934660D01*
Y3871160D01*
G01X6831130D02*
Y3934660D01*
X6848740Y3881740D01*
X6866350Y3934660D01*
Y3871160D01*
G01X5500000Y4315640D02*
Y9320440D01*
X7024000D01*
Y4315640D01*
X5500000D01*
G01X6191330Y2273750D02*
X6289760Y2591250D01*
X6388190Y2273750D01*
G01X6352750Y2384870D02*
X6226760D01*
G01X6525980Y2591250D02*
Y2273750D01*
X6683460D01*
G01X6840940Y2591250D02*
Y2273750D01*
X6998420D01*
G01X7462990Y2591250D02*
Y2363710D01*
X7478730Y2316070D01*
X7510230Y2284330D01*
X7549600Y2273750D01*
X7588970Y2284330D01*
X7620470Y2316070D01*
X7636210Y2363710D01*
Y2591250D01*
G01X7774010Y2273750D02*
Y2591250D01*
X7955110Y2273750D01*
Y2591250D01*
G01X8132280D02*
X8226760D01*
G01X8179520D02*
Y2273750D01*
G01X8132280D02*
X8226760D01*
G01X8494480Y2591250D02*
Y2273750D01*
G01X8403930Y2591250D02*
X8585030D01*
G01X8726760Y2316070D02*
X8758260Y2289620D01*
X8793690Y2273750D01*
X8825190D01*
X8856680Y2289620D01*
X8880310Y2316070D01*
X8892120Y2353130D01*
X8884250Y2390160D01*
X8864560Y2421910D01*
X8829120Y2443090D01*
X8781880Y2453670D01*
X8754320Y2474830D01*
X8742510Y2511870D01*
X8750390Y2548920D01*
X8770070Y2575370D01*
X8797630Y2591250D01*
X8825190D01*
X8852750Y2580670D01*
X8876370Y2554210D01*
G01X9340930Y2273750D02*
X9439360Y2591250D01*
X9537790Y2273750D01*
G01X9502350Y2384870D02*
X9376360D01*
G01X9675580Y2273750D02*
Y2591250D01*
X9774000D01*
X9805500Y2575370D01*
X9825190Y2554210D01*
X9833060Y2511870D01*
X9825190Y2469540D01*
X9801560Y2443090D01*
X9774000Y2427200D01*
X9675580D01*
G01X9774000D02*
X9833060Y2273750D01*
G01X10148020D02*
X9990540D01*
Y2591250D01*
X10148020D01*
G01X10085030Y2437800D02*
X9990540D01*
G01X10651960Y2591250D02*
X10746440D01*
G01X10699200D02*
Y2273750D01*
G01X10651960D02*
X10746440D01*
G01X10923610D02*
Y2591250D01*
X11104710Y2273750D01*
Y2591250D01*
G01X11541710Y2273750D02*
Y2591250D01*
X11644080Y2326670D01*
X11746450Y2591250D01*
Y2273750D01*
G01X11911800Y2591250D02*
X12006280D01*
G01X11959040D02*
Y2273750D01*
G01X11911800D02*
X12006280D01*
G01X12195260Y2591250D02*
Y2273750D01*
X12352740D01*
G01X12510220Y2591250D02*
Y2273750D01*
X12667700D01*
G01X12856680Y2591250D02*
X12951160D01*
G01X12903920D02*
Y2273750D01*
G01X12856680D02*
X12951160D01*
G01X13116510D02*
Y2591250D01*
X13218880Y2326670D01*
X13321250Y2591250D01*
Y2273750D01*
G01X13612580D02*
X13455100D01*
Y2591250D01*
X13612580D01*
G01X13549590Y2437800D02*
X13455100D01*
G01X13848800Y2591250D02*
Y2273750D01*
G01X13758250Y2591250D02*
X13939350D01*
G01X14242500Y2273750D02*
X14085020D01*
Y2591250D01*
X14242500D01*
G01X14179510Y2437800D02*
X14085020D01*
G01X14399980Y2273750D02*
Y2591250D01*
X14498400D01*
X14529900Y2575370D01*
X14549590Y2554210D01*
X14557460Y2511870D01*
X14549590Y2469540D01*
X14525960Y2443090D01*
X14498400Y2427200D01*
X14399980D01*
G01X14498400D02*
X14557460Y2273750D01*
G01X14711000Y2316070D02*
X14742500Y2289620D01*
X14777930Y2273750D01*
X14809430D01*
X14840920Y2289620D01*
X14864550Y2316070D01*
X14876360Y2353130D01*
X14868490Y2390160D01*
X14848800Y2421910D01*
X14813360Y2443090D01*
X14766120Y2453670D01*
X14738560Y2474830D01*
X14726750Y2511870D01*
X14734630Y2548920D01*
X14754310Y2575370D01*
X14781870Y2591250D01*
X14809430D01*
X14836990Y2580670D01*
X14860610Y2554210D01*
G01X6518110Y2923750D02*
Y3241250D01*
X6596840D01*
X6628340Y3225370D01*
X6651960Y3204210D01*
X6671650Y3172460D01*
X6687400Y3135410D01*
X6691330Y3082500D01*
X6687400Y3029580D01*
X6671650Y2992540D01*
X6651960Y2960780D01*
X6628340Y2939620D01*
X6596840Y2923750D01*
X6518110D01*
G01X6840940D02*
Y3241250D01*
X6939360D01*
X6970860Y3225370D01*
X6990550Y3204210D01*
X6998420Y3161870D01*
X6990550Y3119540D01*
X6966920Y3093090D01*
X6939360Y3077200D01*
X6840940D01*
G01X6939360D02*
X6998420Y2923750D01*
G01X7187400Y3241250D02*
X7281880D01*
G01X7234640D02*
Y2923750D01*
G01X7187400D02*
X7281880D01*
G01X7470860Y3241250D02*
Y2923750D01*
X7628340D01*
G01X7785820Y3241250D02*
Y2923750D01*
X7943300D01*
G01X8581090Y3214790D02*
X8557470Y3230670D01*
X8529920Y3241250D01*
X8498420D01*
X8462980Y3225370D01*
X8435430Y3198920D01*
X8415740Y3167160D01*
X8399990Y3114250D01*
X8396050Y3066620D01*
X8403930Y3019000D01*
X8415740Y2987250D01*
X8439360Y2955490D01*
X8466920Y2934330D01*
X8494480Y2923750D01*
X8522040D01*
X8549600Y2934330D01*
X8573220Y2950200D01*
X8592910Y2971360D01*
G01X8726760Y2923750D02*
Y3241250D01*
G01X8892120D02*
Y2923750D01*
G01Y3082500D02*
X8726760D01*
G01X9025970Y2923750D02*
X9124400Y3241250D01*
X9222830Y2923750D01*
G01X9187390Y3034870D02*
X9061400D01*
G01X9360620Y2923750D02*
Y3241250D01*
X9459040D01*
X9490540Y3225370D01*
X9510230Y3204210D01*
X9518100Y3161870D01*
X9510230Y3119540D01*
X9486600Y3093090D01*
X9459040Y3077200D01*
X9360620D01*
G01X9459040D02*
X9518100Y2923750D01*
G01X9754320Y3241250D02*
Y2923750D01*
G01X9663770Y3241250D02*
X9844870D01*
G01X10069280Y2913170D02*
X10061400Y2918460D01*
Y2929040D01*
X10069280Y2934330D01*
X10077160Y2929040D01*
Y2918460D01*
X10069280Y2913170D01*
G01Y3056030D02*
X10061400Y3061330D01*
Y3071910D01*
X10069280Y3077200D01*
X10077160Y3071910D01*
Y3061330D01*
X10069280Y3056030D01*
G01X10699200Y3241250D02*
Y2923750D01*
G01X10608650Y3241250D02*
X10789750D01*
G01X11014160Y2923750D02*
X10982660Y2929040D01*
X10955110Y2950200D01*
X10931480Y2981960D01*
X10915730Y3019000D01*
X10907860Y3061330D01*
Y3103670D01*
X10915730Y3146000D01*
X10931480Y3183040D01*
X10955110Y3214790D01*
X10982660Y3235960D01*
X11014160Y3241250D01*
X11045650Y3235960D01*
X11073210Y3214790D01*
X11096840Y3183040D01*
X11112590Y3146000D01*
X11120460Y3103670D01*
Y3061330D01*
X11112590Y3019000D01*
X11096840Y2981960D01*
X11073210Y2950200D01*
X11045650Y2929040D01*
X11014160Y2923750D01*
G01X11250380D02*
Y3241250D01*
X11344870D01*
X11376360Y3225370D01*
X11399990Y3188330D01*
X11407860Y3146000D01*
X11399990Y3103670D01*
X11380300Y3071910D01*
X11344870Y3056030D01*
X11250380D01*
G01X11959040Y3241250D02*
Y2923750D01*
G01X11903920Y3135410D02*
X12014160D01*
G01X12274000Y2923750D02*
X12250380Y2929040D01*
X12226760Y2950200D01*
X12211000Y2987250D01*
X12203130Y3029580D01*
X12211000Y3071910D01*
X12226760Y3108960D01*
X12250380Y3130120D01*
X12274000Y3135410D01*
X12297620Y3130120D01*
X12321240Y3108960D01*
X12336990Y3071910D01*
X12340930Y3029580D01*
X12336990Y2987250D01*
X12321240Y2950200D01*
X12297620Y2929040D01*
X12274000Y2923750D01*
G01X12935410Y3093090D02*
X12951160Y3108960D01*
X12962970Y3135410D01*
X12970850Y3172460D01*
X12962970Y3204210D01*
X12947230Y3225370D01*
X12919670Y3241250D01*
X12813370D01*
Y2923750D01*
X12943290D01*
X12970850Y2944910D01*
X12986600Y2976670D01*
X12994470Y3013710D01*
X12986600Y3050740D01*
X12962970Y3082500D01*
X12935410Y3093090D01*
X12813370D01*
G01X13218880Y2923750D02*
X13187380Y2929040D01*
X13159830Y2950200D01*
X13136200Y2981960D01*
X13120450Y3019000D01*
X13112580Y3061330D01*
Y3103670D01*
X13120450Y3146000D01*
X13136200Y3183040D01*
X13159830Y3214790D01*
X13187380Y3235960D01*
X13218880Y3241250D01*
X13250370Y3235960D01*
X13277930Y3214790D01*
X13301560Y3183040D01*
X13317310Y3146000D01*
X13325180Y3103670D01*
Y3061330D01*
X13317310Y3019000D01*
X13301560Y2981960D01*
X13277930Y2950200D01*
X13250370Y2929040D01*
X13218880Y2923750D01*
G01X13533840Y3241250D02*
Y2923750D01*
G01X13443290Y3241250D02*
X13624390D01*
G01X13848800D02*
Y2923750D01*
G01X13758250Y3241250D02*
X13939350D01*
G01X14163760Y2923750D02*
X14132260Y2929040D01*
X14104710Y2950200D01*
X14081080Y2981960D01*
X14065330Y3019000D01*
X14057460Y3061330D01*
Y3103670D01*
X14065330Y3146000D01*
X14081080Y3183040D01*
X14104710Y3214790D01*
X14132260Y3235960D01*
X14163760Y3241250D01*
X14195250Y3235960D01*
X14222810Y3214790D01*
X14246440Y3183040D01*
X14262190Y3146000D01*
X14270060Y3103670D01*
Y3061330D01*
X14262190Y3019000D01*
X14246440Y2981960D01*
X14222810Y2950200D01*
X14195250Y2929040D01*
X14163760Y2923750D01*
G01X14376350D02*
Y3241250D01*
X14478720Y2976670D01*
X14581090Y3241250D01*
Y2923750D01*
G01X6198500Y9461860D02*
X6135000D01*
X6147700Y9453730D01*
G01X6198500D02*
Y9469990D01*
G01X6177330Y9508930D02*
Y9526550D01*
G01X6145580Y9560750D02*
X6139230Y9564810D01*
X6136060Y9569560D01*
X6135000Y9574970D01*
X6137120Y9581750D01*
X6142410Y9586490D01*
X6148760Y9587840D01*
X6155110Y9587170D01*
X6160400Y9584460D01*
X6170980Y9570910D01*
X6178390Y9564810D01*
X6188980Y9560750D01*
X6198500Y9559400D01*
Y9587840D01*
G01X6683460Y2115000D02*
Y845000D01*
G01X7086650Y4294480D02*
Y4230980D01*
X7113750D01*
G01X7143210Y4283900D02*
X7147270Y4290250D01*
X7152020Y4293420D01*
X7157430Y4294480D01*
X7164210Y4292360D01*
X7168950Y4287070D01*
X7170300Y4280720D01*
X7169630Y4274370D01*
X7166920Y4269080D01*
X7153370Y4258500D01*
X7147270Y4251090D01*
X7143210Y4240500D01*
X7141860Y4230980D01*
X7170300D01*
G01X7211960Y4228860D02*
X7210610Y4229920D01*
Y4232040D01*
X7211960Y4233100D01*
X7213310Y4232040D01*
Y4229920D01*
X7211960Y4228860D01*
G01Y4257440D02*
X7210610Y4258500D01*
Y4260610D01*
X7211960Y4261670D01*
X7213310Y4260610D01*
Y4258500D01*
X7211960Y4257440D01*
G01X7329140Y4264850D02*
X7331850Y4268020D01*
X7333880Y4273310D01*
X7335240Y4280720D01*
X7333880Y4287070D01*
X7331170Y4291300D01*
X7326430Y4294480D01*
X7308140D01*
Y4230980D01*
X7330490D01*
X7335240Y4235210D01*
X7337940Y4241560D01*
X7339300Y4248970D01*
X7337940Y4256380D01*
X7333880Y4262730D01*
X7329140Y4264850D01*
X7308140D01*
G01X7379600Y4230980D02*
X7374180Y4232040D01*
X7369440Y4236270D01*
X7365380Y4242620D01*
X7362670Y4250030D01*
X7361310Y4258500D01*
Y4266960D01*
X7362670Y4275430D01*
X7365380Y4282840D01*
X7369440Y4289190D01*
X7374180Y4293420D01*
X7379600Y4294480D01*
X7385020Y4293420D01*
X7389760Y4289190D01*
X7393820Y4282840D01*
X7396530Y4275430D01*
X7397890Y4266960D01*
Y4258500D01*
X7396530Y4250030D01*
X7393820Y4242620D01*
X7389760Y4236270D01*
X7385020Y4232040D01*
X7379600Y4230980D01*
G01X7435480Y4294480D02*
Y4230980D01*
G01X7419900Y4294480D02*
X7451060D01*
G01X7491360D02*
Y4230980D01*
G01X7475780Y4294480D02*
X7506940D01*
G01X7547240Y4230980D02*
X7541820Y4232040D01*
X7537080Y4236270D01*
X7533020Y4242620D01*
X7530310Y4250030D01*
X7528950Y4258500D01*
Y4266960D01*
X7530310Y4275430D01*
X7533020Y4282840D01*
X7537080Y4289190D01*
X7541820Y4293420D01*
X7547240Y4294480D01*
X7552660Y4293420D01*
X7557400Y4289190D01*
X7561460Y4282840D01*
X7564170Y4275430D01*
X7565530Y4266960D01*
Y4258500D01*
X7564170Y4250030D01*
X7561460Y4242620D01*
X7557400Y4236270D01*
X7552660Y4232040D01*
X7547240Y4230980D01*
G01X7585510D02*
Y4294480D01*
X7603120Y4241560D01*
X7620730Y4294480D01*
Y4230980D01*
G01X7729780Y4289190D02*
X7725720Y4292360D01*
X7720980Y4294480D01*
X7715560D01*
X7709460Y4291300D01*
X7704720Y4286010D01*
X7701330Y4279660D01*
X7698620Y4269080D01*
X7697950Y4259550D01*
X7699300Y4250030D01*
X7701330Y4243680D01*
X7705400Y4237330D01*
X7710140Y4233100D01*
X7714880Y4230980D01*
X7719620D01*
X7724360Y4233100D01*
X7728430Y4236270D01*
X7731810Y4240500D01*
G01X7770760Y4230980D02*
X7765340Y4232040D01*
X7760600Y4236270D01*
X7756540Y4242620D01*
X7753830Y4250030D01*
X7752470Y4258500D01*
Y4266960D01*
X7753830Y4275430D01*
X7756540Y4282840D01*
X7760600Y4289190D01*
X7765340Y4293420D01*
X7770760Y4294480D01*
X7776180Y4293420D01*
X7780920Y4289190D01*
X7784980Y4282840D01*
X7787690Y4275430D01*
X7789050Y4266960D01*
Y4258500D01*
X7787690Y4250030D01*
X7784980Y4242620D01*
X7780920Y4236270D01*
X7776180Y4232040D01*
X7770760Y4230980D01*
G01X7811060D02*
Y4294480D01*
X7842220Y4230980D01*
Y4294480D01*
G01X7867620Y4230980D02*
Y4294480D01*
X7881170D01*
X7886580Y4291300D01*
X7890650Y4287070D01*
X7894040Y4280720D01*
X7896740Y4273310D01*
X7897420Y4262730D01*
X7896740Y4252150D01*
X7894040Y4244740D01*
X7890650Y4238390D01*
X7886580Y4234150D01*
X7881170Y4230980D01*
X7867620D01*
G01X7923500Y4294480D02*
Y4248970D01*
X7926210Y4239440D01*
X7931630Y4233100D01*
X7938400Y4230980D01*
X7945170Y4233100D01*
X7950590Y4239440D01*
X7953300Y4248970D01*
Y4294480D01*
G01X8009180Y4289190D02*
X8005120Y4292360D01*
X8000380Y4294480D01*
X7994960D01*
X7988860Y4291300D01*
X7984120Y4286010D01*
X7980730Y4279660D01*
X7978020Y4269080D01*
X7977350Y4259550D01*
X7978700Y4250030D01*
X7980730Y4243680D01*
X7984800Y4237330D01*
X7989540Y4233100D01*
X7994280Y4230980D01*
X7999020D01*
X8003760Y4233100D01*
X8007830Y4236270D01*
X8011210Y4240500D01*
G01X8050160Y4294480D02*
Y4230980D01*
G01X8034580Y4294480D02*
X8065740D01*
G01X8106040Y4230980D02*
X8100620Y4232040D01*
X8095880Y4236270D01*
X8091820Y4242620D01*
X8089110Y4250030D01*
X8087750Y4258500D01*
Y4266960D01*
X8089110Y4275430D01*
X8091820Y4282840D01*
X8095880Y4289190D01*
X8100620Y4293420D01*
X8106040Y4294480D01*
X8111460Y4293420D01*
X8116200Y4289190D01*
X8120260Y4282840D01*
X8122970Y4275430D01*
X8124330Y4266960D01*
Y4258500D01*
X8122970Y4250030D01*
X8120260Y4242620D01*
X8116200Y4236270D01*
X8111460Y4232040D01*
X8106040Y4230980D01*
G01X8148370D02*
Y4294480D01*
X8165310D01*
X8170730Y4291300D01*
X8174110Y4287070D01*
X8175470Y4278600D01*
X8174110Y4270140D01*
X8170050Y4264850D01*
X8165310Y4261670D01*
X8148370D01*
G01X8165310D02*
X8175470Y4230980D01*
G01X8264870Y4252150D02*
X8282490D01*
G01X8400340Y4289190D02*
X8396280Y4292360D01*
X8391540Y4294480D01*
X8386120D01*
X8380020Y4291300D01*
X8375280Y4286010D01*
X8371890Y4279660D01*
X8369180Y4269080D01*
X8368510Y4259550D01*
X8369860Y4250030D01*
X8371890Y4243680D01*
X8375960Y4237330D01*
X8380700Y4233100D01*
X8385440Y4230980D01*
X8390180D01*
X8394920Y4233100D01*
X8398990Y4236270D01*
X8402370Y4240500D01*
G01X8441320Y4230980D02*
X8435900Y4232040D01*
X8431160Y4236270D01*
X8427100Y4242620D01*
X8424390Y4250030D01*
X8423030Y4258500D01*
Y4266960D01*
X8424390Y4275430D01*
X8427100Y4282840D01*
X8431160Y4289190D01*
X8435900Y4293420D01*
X8441320Y4294480D01*
X8446740Y4293420D01*
X8451480Y4289190D01*
X8455540Y4282840D01*
X8458250Y4275430D01*
X8459610Y4266960D01*
Y4258500D01*
X8458250Y4250030D01*
X8455540Y4242620D01*
X8451480Y4236270D01*
X8446740Y4232040D01*
X8441320Y4230980D01*
G01X8483650D02*
Y4294480D01*
X8499910D01*
X8505330Y4291300D01*
X8509390Y4283900D01*
X8510750Y4275430D01*
X8509390Y4266960D01*
X8506010Y4260610D01*
X8499910Y4257440D01*
X8483650D01*
G01X8539530Y4230980D02*
Y4294480D01*
X8555790D01*
X8561210Y4291300D01*
X8565270Y4283900D01*
X8566630Y4275430D01*
X8565270Y4266960D01*
X8561890Y4260610D01*
X8555790Y4257440D01*
X8539530D01*
G01X8622510Y4230980D02*
X8595410D01*
Y4294480D01*
X8622510D01*
G01X8611670Y4263790D02*
X8595410D01*
G01X8651290Y4230980D02*
Y4294480D01*
X8668230D01*
X8673650Y4291300D01*
X8677030Y4287070D01*
X8678390Y4278600D01*
X8677030Y4270140D01*
X8672970Y4264850D01*
X8668230Y4261670D01*
X8651290D01*
G01X8668230D02*
X8678390Y4230980D01*
G01X8776600Y4294480D02*
X8771180Y4292360D01*
X8767120Y4287070D01*
X8764410Y4280720D01*
X8762380Y4272250D01*
X8761700Y4262730D01*
X8762380Y4253200D01*
X8764410Y4244740D01*
X8767120Y4238390D01*
X8771180Y4233100D01*
X8776600Y4230980D01*
X8782020Y4233100D01*
X8786080Y4238390D01*
X8788790Y4244740D01*
X8790820Y4253200D01*
X8791500Y4262730D01*
X8790820Y4272250D01*
X8788790Y4280720D01*
X8786080Y4287070D01*
X8782020Y4292360D01*
X8776600Y4294480D01*
G01X8832480Y4228860D02*
X8831130Y4229920D01*
Y4232040D01*
X8832480Y4233100D01*
X8833830Y4232040D01*
Y4229920D01*
X8832480Y4228860D01*
G01X8888360Y4294480D02*
X8882940Y4292360D01*
X8878880Y4287070D01*
X8876170Y4280720D01*
X8874140Y4272250D01*
X8873460Y4262730D01*
X8874140Y4253200D01*
X8876170Y4244740D01*
X8878880Y4238390D01*
X8882940Y4233100D01*
X8888360Y4230980D01*
X8893780Y4233100D01*
X8897840Y4238390D01*
X8900550Y4244740D01*
X8902580Y4253200D01*
X8903260Y4262730D01*
X8902580Y4272250D01*
X8900550Y4280720D01*
X8897840Y4287070D01*
X8893780Y4292360D01*
X8888360Y4294480D01*
G01X8944240Y4230980D02*
Y4294480D01*
X8936110Y4281780D01*
G01Y4230980D02*
X8952370D01*
G01X9000120D02*
X9004860Y4232040D01*
X9010280Y4235210D01*
X9013670Y4240500D01*
X9015020Y4247910D01*
X9013670Y4255320D01*
X9009600Y4261670D01*
X9003510Y4264850D01*
X8996730D01*
X8992670Y4266960D01*
X8989280Y4272250D01*
X8987930Y4279660D01*
X8989960Y4287070D01*
X8994700Y4292360D01*
X9000120Y4294480D01*
X9005540Y4292360D01*
X9010280Y4287070D01*
X9012310Y4279660D01*
X9010960Y4272250D01*
X9007570Y4266960D01*
X9003510Y4264850D01*
X8996730D01*
X8990640Y4261670D01*
X8986570Y4255320D01*
X8985220Y4247910D01*
X8986570Y4240500D01*
X8989960Y4235210D01*
X8995380Y4232040D01*
X9000120Y4230980D01*
G01X9094270D02*
Y4294480D01*
X9111880Y4241560D01*
X9129490Y4294480D01*
Y4230980D01*
G01X9150150D02*
Y4294480D01*
X9167760Y4241560D01*
X9185370Y4294480D01*
Y4230980D01*
G01X7197060Y4144200D02*
X7226860Y4190770D01*
G01X7211960Y4199240D02*
Y4135740D01*
G01X7226860Y4144200D02*
X7197060Y4190770D01*
G01X7191640Y4167490D02*
X7232280D01*
G01X7365380Y4154780D02*
X7370790Y4149490D01*
X7376890Y4146320D01*
X7382310D01*
X7387730Y4149490D01*
X7391790Y4154780D01*
X7393820Y4162200D01*
X7392470Y4169600D01*
X7389080Y4175950D01*
X7382990Y4180190D01*
X7374860Y4182300D01*
X7370120Y4186540D01*
X7368080Y4193940D01*
X7369440Y4201350D01*
X7372830Y4206640D01*
X7377570Y4209820D01*
X7382310D01*
X7387050Y4207700D01*
X7391120Y4202410D01*
G01X7420580Y4209820D02*
Y4164310D01*
X7423290Y4154780D01*
X7428710Y4148440D01*
X7435480Y4146320D01*
X7442250Y4148440D01*
X7447670Y4154780D01*
X7450380Y4164310D01*
Y4209820D01*
G01X7477810Y4146320D02*
Y4209820D01*
X7494750D01*
X7500170Y4206640D01*
X7503550Y4202410D01*
X7504910Y4193940D01*
X7503550Y4185480D01*
X7499490Y4180190D01*
X7494750Y4177010D01*
X7477810D01*
G01X7494750D02*
X7504910Y4146320D01*
G01X7534370D02*
Y4209820D01*
X7560110D01*
G01X7550630Y4179130D02*
X7534370D01*
G01X7586190Y4146320D02*
X7603120Y4209820D01*
X7620050Y4146320D01*
G01X7613960Y4168540D02*
X7592280D01*
G01X7673900Y4204530D02*
X7669840Y4207700D01*
X7665100Y4209820D01*
X7659680D01*
X7653580Y4206640D01*
X7648840Y4201350D01*
X7645450Y4195000D01*
X7642740Y4184420D01*
X7642070Y4174890D01*
X7643420Y4165370D01*
X7645450Y4159020D01*
X7649520Y4152670D01*
X7654260Y4148440D01*
X7659000Y4146320D01*
X7663740D01*
X7668480Y4148440D01*
X7672550Y4151610D01*
X7675930Y4155840D01*
G01X7728430Y4146320D02*
X7701330D01*
Y4209820D01*
X7728430D01*
G01X7717590Y4179130D02*
X7701330D01*
G01X7817830Y4167490D02*
X7835450D01*
G01X7921470Y4146320D02*
X7938400Y4209820D01*
X7955330Y4146320D01*
G01X7949240Y4168540D02*
X7927560D01*
G01X7986150Y4209820D02*
X8002410D01*
G01X7994280D02*
Y4146320D01*
G01X7986150D02*
X8002410D01*
G01X8036610D02*
Y4209820D01*
X8053550D01*
X8058970Y4206640D01*
X8062350Y4202410D01*
X8063710Y4193940D01*
X8062350Y4185480D01*
X8058290Y4180190D01*
X8053550Y4177010D01*
X8036610D01*
G01X8053550D02*
X8063710Y4146320D01*
G01X8161920Y4209820D02*
X8156500Y4207700D01*
X8152440Y4202410D01*
X8149730Y4196060D01*
X8147700Y4187590D01*
X8147020Y4178070D01*
X8147700Y4168540D01*
X8149730Y4160080D01*
X8152440Y4153730D01*
X8156500Y4148440D01*
X8161920Y4146320D01*
X8167340Y4148440D01*
X8171400Y4153730D01*
X8174110Y4160080D01*
X8176140Y4168540D01*
X8176820Y4178070D01*
X8176140Y4187590D01*
X8174110Y4196060D01*
X8171400Y4202410D01*
X8167340Y4207700D01*
X8161920Y4209820D01*
G01X8256070Y4146320D02*
Y4209820D01*
X8273680Y4156900D01*
X8291290Y4209820D01*
Y4146320D01*
G01X8311950D02*
Y4209820D01*
X8329560Y4156900D01*
X8347170Y4209820D01*
Y4146320D01*
G01X7197060Y6815920D02*
X7226860Y6862490D01*
G01X7211960Y6870960D02*
Y6807460D01*
G01X7226860Y6815920D02*
X7197060Y6862490D01*
G01X7191640Y6839210D02*
X7232280D01*
G01X7364700Y6818040D02*
Y6881540D01*
X7378250D01*
X7383660Y6878360D01*
X7387730Y6874130D01*
X7391120Y6867780D01*
X7393820Y6860370D01*
X7394500Y6849790D01*
X7393820Y6839210D01*
X7391120Y6831800D01*
X7387730Y6825450D01*
X7383660Y6821210D01*
X7378250Y6818040D01*
X7364700D01*
G01X7427350Y6881540D02*
X7443610D01*
G01X7435480D02*
Y6818040D01*
G01X7427350D02*
X7443610D01*
G01X7504910D02*
X7477810D01*
Y6881540D01*
X7504910D01*
G01X7494070Y6850850D02*
X7477810D01*
G01X7533690Y6881540D02*
Y6818040D01*
X7560790D01*
G01X7616670D02*
X7589570D01*
Y6881540D01*
X7616670D01*
G01X7605830Y6850850D02*
X7589570D01*
G01X7673900Y6876250D02*
X7669840Y6879420D01*
X7665100Y6881540D01*
X7659680D01*
X7653580Y6878360D01*
X7648840Y6873070D01*
X7645450Y6866720D01*
X7642740Y6856140D01*
X7642070Y6846610D01*
X7643420Y6837090D01*
X7645450Y6830740D01*
X7649520Y6824390D01*
X7654260Y6820160D01*
X7659000Y6818040D01*
X7663740D01*
X7668480Y6820160D01*
X7672550Y6823330D01*
X7675930Y6827560D01*
G01X7714880Y6881540D02*
Y6818040D01*
G01X7699300Y6881540D02*
X7730460D01*
G01X7757210Y6818040D02*
Y6881540D01*
X7774150D01*
X7779570Y6878360D01*
X7782950Y6874130D01*
X7784310Y6865660D01*
X7782950Y6857200D01*
X7778890Y6851910D01*
X7774150Y6848730D01*
X7757210D01*
G01X7774150D02*
X7784310Y6818040D01*
G01X7818510Y6881540D02*
X7834770D01*
G01X7826640D02*
Y6818040D01*
G01X7818510D02*
X7834770D01*
G01X7897420Y6876250D02*
X7893360Y6879420D01*
X7888620Y6881540D01*
X7883200D01*
X7877100Y6878360D01*
X7872360Y6873070D01*
X7868970Y6866720D01*
X7866260Y6856140D01*
X7865590Y6846610D01*
X7866940Y6837090D01*
X7868970Y6830740D01*
X7873040Y6824390D01*
X7877780Y6820160D01*
X7882520Y6818040D01*
X7887260D01*
X7892000Y6820160D01*
X7896070Y6823330D01*
X7899450Y6827560D01*
G01X7985470Y6839210D02*
X8003090D01*
G01X8093170Y6818040D02*
Y6881540D01*
X8118910D01*
G01X8109430Y6850850D02*
X8093170D01*
G01X8148370Y6818040D02*
Y6881540D01*
X8165310D01*
X8170730Y6878360D01*
X8174110Y6874130D01*
X8175470Y6865660D01*
X8174110Y6857200D01*
X8170050Y6851910D01*
X8165310Y6848730D01*
X8148370D01*
G01X8165310D02*
X8175470Y6818040D01*
G01X8208990Y6839210D02*
X8226610D01*
G01X8281810Y6818040D02*
Y6881540D01*
X8256750Y6836030D01*
X8290610D01*
G01X8385440Y6818040D02*
Y6881540D01*
X8377310Y6868840D01*
G01Y6818040D02*
X8393570D01*
G01X8441320Y6815920D02*
X8439970Y6816980D01*
Y6819100D01*
X8441320Y6820160D01*
X8442670Y6819100D01*
Y6816980D01*
X8441320Y6815920D01*
G01X8482300Y6827560D02*
X8486360Y6822270D01*
X8491100Y6819100D01*
X8497200Y6818040D01*
X8503300Y6820160D01*
X8508040Y6824390D01*
X8511420Y6831800D01*
X8512100Y6840260D01*
X8510750Y6848730D01*
X8507360Y6854020D01*
X8502620Y6858260D01*
X8497880Y6859310D01*
X8493140Y6858260D01*
X8487040Y6854020D01*
X8489070Y6881540D01*
X8507360D01*
G01X8540210Y6844500D02*
X8544950Y6851910D01*
X8549020Y6856140D01*
X8554430Y6858260D01*
X8559180Y6856140D01*
X8562560Y6851910D01*
X8565270Y6845560D01*
X8565950Y6838150D01*
X8565270Y6831800D01*
X8562560Y6825450D01*
X8558500Y6820160D01*
X8553760Y6818040D01*
X8548340Y6820160D01*
X8543600Y6826500D01*
X8540890Y6836030D01*
X8540210Y6846610D01*
X8541560Y6860370D01*
X8543600Y6867780D01*
X8546980Y6875190D01*
X8551730Y6880480D01*
X8556470Y6881540D01*
X8561210Y6879420D01*
X8564600Y6874130D01*
G01X8617090Y6818040D02*
Y6881540D01*
X8592030Y6836030D01*
X8625890D01*
G01X8703110Y6818040D02*
Y6881540D01*
X8720720Y6828620D01*
X8738330Y6881540D01*
Y6818040D01*
G01X8758990D02*
Y6881540D01*
X8776600Y6828620D01*
X8794210Y6881540D01*
Y6818040D01*
G01X7197060Y9397080D02*
X7226860Y9443650D01*
G01X7211960Y9452120D02*
Y9388620D01*
G01X7226860Y9397080D02*
X7197060Y9443650D01*
G01X7191640Y9420370D02*
X7232280D01*
G01X7365380Y9407660D02*
X7370790Y9402370D01*
X7376890Y9399200D01*
X7382310D01*
X7387730Y9402370D01*
X7391790Y9407660D01*
X7393820Y9415080D01*
X7392470Y9422480D01*
X7389080Y9428830D01*
X7382990Y9433070D01*
X7374860Y9435180D01*
X7370120Y9439420D01*
X7368080Y9446820D01*
X7369440Y9454230D01*
X7372830Y9459520D01*
X7377570Y9462700D01*
X7382310D01*
X7387050Y9460580D01*
X7391120Y9455290D01*
G01X7420580Y9462700D02*
Y9417190D01*
X7423290Y9407660D01*
X7428710Y9401320D01*
X7435480Y9399200D01*
X7442250Y9401320D01*
X7447670Y9407660D01*
X7450380Y9417190D01*
Y9462700D01*
G01X7477810Y9399200D02*
Y9462700D01*
X7494750D01*
X7500170Y9459520D01*
X7503550Y9455290D01*
X7504910Y9446820D01*
X7503550Y9438360D01*
X7499490Y9433070D01*
X7494750Y9429890D01*
X7477810D01*
G01X7494750D02*
X7504910Y9399200D01*
G01X7534370D02*
Y9462700D01*
X7560110D01*
G01X7550630Y9432010D02*
X7534370D01*
G01X7586190Y9399200D02*
X7603120Y9462700D01*
X7620050Y9399200D01*
G01X7613960Y9421420D02*
X7592280D01*
G01X7673900Y9457410D02*
X7669840Y9460580D01*
X7665100Y9462700D01*
X7659680D01*
X7653580Y9459520D01*
X7648840Y9454230D01*
X7645450Y9447880D01*
X7642740Y9437300D01*
X7642070Y9427770D01*
X7643420Y9418250D01*
X7645450Y9411900D01*
X7649520Y9405550D01*
X7654260Y9401320D01*
X7659000Y9399200D01*
X7663740D01*
X7668480Y9401320D01*
X7672550Y9404490D01*
X7675930Y9408720D01*
G01X7728430Y9399200D02*
X7701330D01*
Y9462700D01*
X7728430D01*
G01X7717590Y9432010D02*
X7701330D01*
G01X7817830Y9420370D02*
X7835450D01*
G01X7921470Y9399200D02*
X7938400Y9462700D01*
X7955330Y9399200D01*
G01X7949240Y9421420D02*
X7927560D01*
G01X7986150Y9462700D02*
X8002410D01*
G01X7994280D02*
Y9399200D01*
G01X7986150D02*
X8002410D01*
G01X8036610D02*
Y9462700D01*
X8053550D01*
X8058970Y9459520D01*
X8062350Y9455290D01*
X8063710Y9446820D01*
X8062350Y9438360D01*
X8058290Y9433070D01*
X8053550Y9429890D01*
X8036610D01*
G01X8053550D02*
X8063710Y9399200D01*
G01X8161920Y9462700D02*
X8156500Y9460580D01*
X8152440Y9455290D01*
X8149730Y9448940D01*
X8147700Y9440470D01*
X8147020Y9430950D01*
X8147700Y9421420D01*
X8149730Y9412960D01*
X8152440Y9406610D01*
X8156500Y9401320D01*
X8161920Y9399200D01*
X8167340Y9401320D01*
X8171400Y9406610D01*
X8174110Y9412960D01*
X8176140Y9421420D01*
X8176820Y9430950D01*
X8176140Y9440470D01*
X8174110Y9448940D01*
X8171400Y9455290D01*
X8167340Y9460580D01*
X8161920Y9462700D01*
G01X8256070Y9399200D02*
Y9462700D01*
X8273680Y9409780D01*
X8291290Y9462700D01*
Y9399200D01*
G01X8311950D02*
Y9462700D01*
X8329560Y9409780D01*
X8347170Y9462700D01*
Y9399200D01*
G01X7086650Y9356880D02*
Y9293380D01*
X7113750D01*
G01X7156080D02*
Y9356880D01*
X7147950Y9344180D01*
G01Y9293380D02*
X7164210D01*
G01X7211960Y9291260D02*
X7210610Y9292320D01*
Y9294440D01*
X7211960Y9295500D01*
X7213310Y9294440D01*
Y9292320D01*
X7211960Y9291260D01*
G01Y9319840D02*
X7210610Y9320900D01*
Y9323010D01*
X7211960Y9324070D01*
X7213310Y9323010D01*
Y9320900D01*
X7211960Y9319840D01*
G01X7323720Y9356880D02*
Y9293380D01*
G01X7308140Y9356880D02*
X7339300D01*
G01X7379600Y9293380D02*
X7374180Y9294440D01*
X7369440Y9298670D01*
X7365380Y9305020D01*
X7362670Y9312430D01*
X7361310Y9320900D01*
Y9329360D01*
X7362670Y9337830D01*
X7365380Y9345240D01*
X7369440Y9351590D01*
X7374180Y9355820D01*
X7379600Y9356880D01*
X7385020Y9355820D01*
X7389760Y9351590D01*
X7393820Y9345240D01*
X7396530Y9337830D01*
X7397890Y9329360D01*
Y9320900D01*
X7396530Y9312430D01*
X7393820Y9305020D01*
X7389760Y9298670D01*
X7385020Y9294440D01*
X7379600Y9293380D01*
G01X7421930D02*
Y9356880D01*
X7438190D01*
X7443610Y9353700D01*
X7447670Y9346300D01*
X7449030Y9337830D01*
X7447670Y9329360D01*
X7444290Y9323010D01*
X7438190Y9319840D01*
X7421930D01*
G01X7562140Y9351590D02*
X7558080Y9354760D01*
X7553340Y9356880D01*
X7547920D01*
X7541820Y9353700D01*
X7537080Y9348410D01*
X7533690Y9342060D01*
X7530980Y9331480D01*
X7530310Y9321950D01*
X7531660Y9312430D01*
X7533690Y9306080D01*
X7537760Y9299730D01*
X7542500Y9295500D01*
X7547240Y9293380D01*
X7551980D01*
X7556720Y9295500D01*
X7560790Y9298670D01*
X7564170Y9302900D01*
G01X7603120Y9293380D02*
X7597700Y9294440D01*
X7592960Y9298670D01*
X7588900Y9305020D01*
X7586190Y9312430D01*
X7584830Y9320900D01*
Y9329360D01*
X7586190Y9337830D01*
X7588900Y9345240D01*
X7592960Y9351590D01*
X7597700Y9355820D01*
X7603120Y9356880D01*
X7608540Y9355820D01*
X7613280Y9351590D01*
X7617340Y9345240D01*
X7620050Y9337830D01*
X7621410Y9329360D01*
Y9320900D01*
X7620050Y9312430D01*
X7617340Y9305020D01*
X7613280Y9298670D01*
X7608540Y9294440D01*
X7603120Y9293380D01*
G01X7643420D02*
Y9356880D01*
X7674580Y9293380D01*
Y9356880D01*
G01X7699980Y9293380D02*
Y9356880D01*
X7713530D01*
X7718940Y9353700D01*
X7723010Y9349470D01*
X7726400Y9343120D01*
X7729100Y9335710D01*
X7729780Y9325130D01*
X7729100Y9314550D01*
X7726400Y9307140D01*
X7723010Y9300790D01*
X7718940Y9296550D01*
X7713530Y9293380D01*
X7699980D01*
G01X7755860Y9356880D02*
Y9311370D01*
X7758570Y9301840D01*
X7763990Y9295500D01*
X7770760Y9293380D01*
X7777530Y9295500D01*
X7782950Y9301840D01*
X7785660Y9311370D01*
Y9356880D01*
G01X7841540Y9351590D02*
X7837480Y9354760D01*
X7832740Y9356880D01*
X7827320D01*
X7821220Y9353700D01*
X7816480Y9348410D01*
X7813090Y9342060D01*
X7810380Y9331480D01*
X7809710Y9321950D01*
X7811060Y9312430D01*
X7813090Y9306080D01*
X7817160Y9299730D01*
X7821900Y9295500D01*
X7826640Y9293380D01*
X7831380D01*
X7836120Y9295500D01*
X7840190Y9298670D01*
X7843570Y9302900D01*
G01X7882520Y9356880D02*
Y9293380D01*
G01X7866940Y9356880D02*
X7898100D01*
G01X7938400Y9293380D02*
X7932980Y9294440D01*
X7928240Y9298670D01*
X7924180Y9305020D01*
X7921470Y9312430D01*
X7920110Y9320900D01*
Y9329360D01*
X7921470Y9337830D01*
X7924180Y9345240D01*
X7928240Y9351590D01*
X7932980Y9355820D01*
X7938400Y9356880D01*
X7943820Y9355820D01*
X7948560Y9351590D01*
X7952620Y9345240D01*
X7955330Y9337830D01*
X7956690Y9329360D01*
Y9320900D01*
X7955330Y9312430D01*
X7952620Y9305020D01*
X7948560Y9298670D01*
X7943820Y9294440D01*
X7938400Y9293380D01*
G01X7980730D02*
Y9356880D01*
X7997670D01*
X8003090Y9353700D01*
X8006470Y9349470D01*
X8007830Y9341000D01*
X8006470Y9332540D01*
X8002410Y9327250D01*
X7997670Y9324070D01*
X7980730D01*
G01X7997670D02*
X8007830Y9293380D01*
G01X8097230Y9314550D02*
X8114850D01*
G01X8232700Y9351590D02*
X8228640Y9354760D01*
X8223900Y9356880D01*
X8218480D01*
X8212380Y9353700D01*
X8207640Y9348410D01*
X8204250Y9342060D01*
X8201540Y9331480D01*
X8200870Y9321950D01*
X8202220Y9312430D01*
X8204250Y9306080D01*
X8208320Y9299730D01*
X8213060Y9295500D01*
X8217800Y9293380D01*
X8222540D01*
X8227280Y9295500D01*
X8231350Y9298670D01*
X8234730Y9302900D01*
G01X8273680Y9293380D02*
X8268260Y9294440D01*
X8263520Y9298670D01*
X8259460Y9305020D01*
X8256750Y9312430D01*
X8255390Y9320900D01*
Y9329360D01*
X8256750Y9337830D01*
X8259460Y9345240D01*
X8263520Y9351590D01*
X8268260Y9355820D01*
X8273680Y9356880D01*
X8279100Y9355820D01*
X8283840Y9351590D01*
X8287900Y9345240D01*
X8290610Y9337830D01*
X8291970Y9329360D01*
Y9320900D01*
X8290610Y9312430D01*
X8287900Y9305020D01*
X8283840Y9298670D01*
X8279100Y9294440D01*
X8273680Y9293380D01*
G01X8316010D02*
Y9356880D01*
X8332270D01*
X8337690Y9353700D01*
X8341750Y9346300D01*
X8343110Y9337830D01*
X8341750Y9329360D01*
X8338370Y9323010D01*
X8332270Y9319840D01*
X8316010D01*
G01X8371890Y9293380D02*
Y9356880D01*
X8388150D01*
X8393570Y9353700D01*
X8397630Y9346300D01*
X8398990Y9337830D01*
X8397630Y9329360D01*
X8394250Y9323010D01*
X8388150Y9319840D01*
X8371890D01*
G01X8454870Y9293380D02*
X8427770D01*
Y9356880D01*
X8454870D01*
G01X8444030Y9326190D02*
X8427770D01*
G01X8483650Y9293380D02*
Y9356880D01*
X8500590D01*
X8506010Y9353700D01*
X8509390Y9349470D01*
X8510750Y9341000D01*
X8509390Y9332540D01*
X8505330Y9327250D01*
X8500590Y9324070D01*
X8483650D01*
G01X8500590D02*
X8510750Y9293380D01*
G01X8608960Y9356880D02*
X8603540Y9354760D01*
X8599480Y9349470D01*
X8596770Y9343120D01*
X8594740Y9334650D01*
X8594060Y9325130D01*
X8594740Y9315600D01*
X8596770Y9307140D01*
X8599480Y9300790D01*
X8603540Y9295500D01*
X8608960Y9293380D01*
X8614380Y9295500D01*
X8618440Y9300790D01*
X8621150Y9307140D01*
X8623180Y9315600D01*
X8623860Y9325130D01*
X8623180Y9334650D01*
X8621150Y9343120D01*
X8618440Y9349470D01*
X8614380Y9354760D01*
X8608960Y9356880D01*
G01X8664840Y9291260D02*
X8663490Y9292320D01*
Y9294440D01*
X8664840Y9295500D01*
X8666190Y9294440D01*
Y9292320D01*
X8664840Y9291260D01*
G01X8720720Y9356880D02*
X8715300Y9354760D01*
X8711240Y9349470D01*
X8708530Y9343120D01*
X8706500Y9334650D01*
X8705820Y9325130D01*
X8706500Y9315600D01*
X8708530Y9307140D01*
X8711240Y9300790D01*
X8715300Y9295500D01*
X8720720Y9293380D01*
X8726140Y9295500D01*
X8730200Y9300790D01*
X8732910Y9307140D01*
X8734940Y9315600D01*
X8735620Y9325130D01*
X8734940Y9334650D01*
X8732910Y9343120D01*
X8730200Y9349470D01*
X8726140Y9354760D01*
X8720720Y9356880D01*
G01X8776600Y9293380D02*
Y9356880D01*
X8768470Y9344180D01*
G01Y9293380D02*
X8784730D01*
G01X8832480D02*
X8837220Y9294440D01*
X8842640Y9297610D01*
X8846030Y9302900D01*
X8847380Y9310310D01*
X8846030Y9317720D01*
X8841960Y9324070D01*
X8835870Y9327250D01*
X8829090D01*
X8825030Y9329360D01*
X8821640Y9334650D01*
X8820290Y9342060D01*
X8822320Y9349470D01*
X8827060Y9354760D01*
X8832480Y9356880D01*
X8837900Y9354760D01*
X8842640Y9349470D01*
X8844670Y9342060D01*
X8843320Y9334650D01*
X8839930Y9329360D01*
X8835870Y9327250D01*
X8829090D01*
X8823000Y9324070D01*
X8818930Y9317720D01*
X8817580Y9310310D01*
X8818930Y9302900D01*
X8822320Y9297610D01*
X8827740Y9294440D01*
X8832480Y9293380D01*
G01X8926630D02*
Y9356880D01*
X8944240Y9303960D01*
X8961850Y9356880D01*
Y9293380D01*
G01X8982510D02*
Y9356880D01*
X9000120Y9303960D01*
X9017730Y9356880D01*
Y9293380D01*
G01X8770070Y1321250D02*
X8738570Y1310670D01*
X8714950Y1284210D01*
X8699200Y1252460D01*
X8687390Y1210120D01*
X8683460Y1162500D01*
X8687390Y1114870D01*
X8699200Y1072540D01*
X8714950Y1040780D01*
X8738570Y1014330D01*
X8770070Y1003750D01*
X8801560Y1014330D01*
X8825190Y1040780D01*
X8840940Y1072540D01*
X8852750Y1114870D01*
X8856680Y1162500D01*
X8852750Y1210120D01*
X8840940Y1252460D01*
X8825190Y1284210D01*
X8801560Y1310670D01*
X8770070Y1321250D01*
G01X9085030Y993170D02*
X9077150Y998460D01*
Y1009040D01*
X9085030Y1014330D01*
X9092910Y1009040D01*
Y998460D01*
X9085030Y993170D01*
G01X9447230Y1003750D02*
Y1321250D01*
X9301560Y1093710D01*
X9498420D01*
G01X8529910Y1681070D02*
X8561410Y1654620D01*
X8596840Y1638750D01*
X8628340D01*
X8659830Y1654620D01*
X8683460Y1681070D01*
X8695270Y1718130D01*
X8687400Y1755160D01*
X8667710Y1786910D01*
X8632270Y1808090D01*
X8585030Y1818670D01*
X8557470Y1839830D01*
X8545660Y1876870D01*
X8553540Y1913920D01*
X8573220Y1940370D01*
X8600780Y1956250D01*
X8628340D01*
X8655900Y1945670D01*
X8679520Y1919210D01*
G01X8880310Y1956250D02*
X8974790D01*
G01X8927550D02*
Y1638750D01*
G01X8880310D02*
X8974790D01*
G01X9167700Y1956250D02*
X9317320D01*
X9167700Y1638750D01*
X9317320D01*
G01X9636210D02*
X9478730D01*
Y1956250D01*
X9636210D01*
G01X9573220Y1802800D02*
X9478730D01*
G01X11486600Y2115000D02*
Y845000D01*
G01X12234630Y1003750D02*
Y1321250D01*
X12329120D01*
X12360610Y1305370D01*
X12384240Y1268330D01*
X12392110Y1226000D01*
X12384240Y1183670D01*
X12364550Y1151910D01*
X12329120Y1136030D01*
X12234630D01*
G01X12549590Y1321250D02*
Y1003750D01*
X12707070D01*
G01X12844860D02*
X12943290Y1321250D01*
X13041720Y1003750D01*
G01X13006280Y1114870D02*
X12880290D01*
G01X13258250Y1321250D02*
Y1003750D01*
G01X13167700Y1321250D02*
X13348800D01*
G01X13651950Y1003750D02*
X13494470D01*
Y1321250D01*
X13651950D01*
G01X13588960Y1167800D02*
X13494470D01*
G01X13801560Y1003750D02*
Y1321250D01*
X13880290D01*
X13911790Y1305370D01*
X13935410Y1284210D01*
X13955100Y1252460D01*
X13970850Y1215410D01*
X13974780Y1162500D01*
X13970850Y1109580D01*
X13955100Y1072540D01*
X13935410Y1040780D01*
X13911790Y1019620D01*
X13880290Y1003750D01*
X13801560D01*
G01X12234630Y1638750D02*
Y1956250D01*
X12329120D01*
X12360610Y1940370D01*
X12384240Y1903330D01*
X12392110Y1861000D01*
X12384240Y1818670D01*
X12364550Y1786910D01*
X12329120Y1771030D01*
X12234630D01*
G01X12549590Y1956250D02*
Y1638750D01*
X12707070D01*
G01X12844860D02*
X12943290Y1956250D01*
X13041720Y1638750D01*
G01X13006280Y1749870D02*
X12880290D01*
G01X13258250Y1956250D02*
Y1638750D01*
G01X13167700Y1956250D02*
X13348800D01*
G01X13651950Y1638750D02*
X13494470D01*
Y1956250D01*
X13651950D01*
G01X13588960Y1802800D02*
X13494470D01*
G01X13801560Y1638750D02*
Y1956250D01*
X13880290D01*
X13911790Y1940370D01*
X13935410Y1919210D01*
X13955100Y1887460D01*
X13970850Y1850410D01*
X13974780Y1797500D01*
X13970850Y1744580D01*
X13955100Y1707540D01*
X13935410Y1675780D01*
X13911790Y1654620D01*
X13880290Y1638750D01*
X13801560D01*
G01X14714940Y2115000D02*
Y845000D01*
G01X15541710Y1003750D02*
Y1321250D01*
X15494470Y1257750D01*
G01Y1003750D02*
X15588950D01*
G01X15856670D02*
Y1321250D01*
X15809430Y1257750D01*
G01Y1003750D02*
X15903910D01*
G01X15384230Y1638750D02*
X15352730Y1644040D01*
X15325180Y1665200D01*
X15301550Y1696960D01*
X15285800Y1734000D01*
X15277930Y1776330D01*
Y1818670D01*
X15285800Y1861000D01*
X15301550Y1898040D01*
X15325180Y1929790D01*
X15352730Y1950960D01*
X15384230Y1956250D01*
X15415720Y1950960D01*
X15443280Y1929790D01*
X15466910Y1898040D01*
X15482660Y1861000D01*
X15490530Y1818670D01*
Y1776330D01*
X15482660Y1734000D01*
X15466910Y1696960D01*
X15443280Y1665200D01*
X15415720Y1644040D01*
X15384230Y1638750D01*
G01X15415720Y1723420D02*
X15462970Y1638750D01*
G01X15699190Y1956250D02*
Y1638750D01*
G01X15608640Y1956250D02*
X15789740D01*
G01X16014150Y1638750D02*
Y1781620D01*
X15935410Y1956250D01*
G01X16092890D02*
X16014150Y1781620D01*
M02*
