G04 ================== begin FILE IDENTIFICATION RECORD ==================*
G04 Layout Name:  C:/Users/Cristiana/Desktop/PROIECT_CEF/PCB_CEFF.brd*
G04 Film Name:    SPTOP*
G04 File Format:  Gerber RS274X*
G04 File Origin:  Cadence Allegro 16.6-2015-S059*
G04 Origin Date:  Thu Dec 18 14:36:46 2025*
G04 *
G04 Layer:  PIN/PASTEMASK_TOP*
G04 Layer:  PACKAGE GEOMETRY/PASTEMASK_TOP*
G04 *
G04 Offset:    (0.0000 0.0000)*
G04 Mirror:    No*
G04 Mode:      Positive*
G04 Rotation:  0*
G04 FullContactRelief:  No*
G04 UndefLineWidth:     0.1000*
G04 ================== end FILE IDENTIFICATION RECORD ====================*
%FSLAX25Y25*MOMM*%
%IR0*IPPOS*OFA0.00000B0.00000*MIA0B0*SFA1.00000B1.00000*%
%ADD14R,.6X1.13*%
%ADD11R,.54X1.3*%
%ADD13R,1.3X.54*%
%ADD18R,.8X1.15*%
%ADD12R,1.15X.8*%
%ADD17R,1.13X1.13*%
%ADD16R,1.2X1.8*%
%ADD15R,.8999X2.2499*%
%ADD22R,2.2499X.8999*%
%ADD10C,1.*%
%ADD21R,1.44X2.7*%
%ADD20R,5.22X5.6*%
%ADD19R,1.2X1.2*%
%LPD*%
G75*
G54D10*
X508000Y508000D03*
X3492000Y3492000D03*
G54D20*
X2058000Y2900500D03*
X3403000Y1671500D03*
G54D11*
X400000Y800000D03*
X278000Y1512000D03*
X478000D03*
X344500Y2349500D03*
X544500D03*
X600000Y800000D03*
X1741500Y317500D03*
X1941500D03*
X2186000D03*
X2386000D03*
X2186000Y1079500D03*
X2386000D03*
X3329000Y3238500D03*
X3529000D03*
G54D21*
X1829000Y3619500D03*
X2286000D03*
X3632000Y952500D03*
X3175000D03*
G54D12*
X324000Y1033720D03*
X529740Y1137860D03*
X324000Y1242000D03*
X238760Y2771140D03*
X444500Y2667000D03*
Y2875280D03*
X967740Y1673860D03*
X762000Y1778000D03*
Y1569720D03*
X1127760Y3088640D03*
X1333500Y2984500D03*
Y3192780D03*
X683260Y3088640D03*
X889000Y2984500D03*
Y3192780D03*
X1699260Y675640D03*
X1905000Y571500D03*
Y779780D03*
X1699260Y2199640D03*
X1905000Y2095500D03*
Y2303780D03*
G54D22*
X3429000Y2222500D03*
Y2476500D03*
G54D13*
X324000Y1790000D03*
Y1990000D03*
X762000Y1043000D03*
Y1243000D03*
X1143000Y1306500D03*
Y1106500D03*
X889000Y3719500D03*
Y3519500D03*
X1270000Y3719500D03*
Y3519500D03*
X1460500Y1106500D03*
Y1306500D03*
X1778000Y1678000D03*
Y1878000D03*
X2730500Y281000D03*
Y481000D03*
X2286000Y1678000D03*
X2667000Y1560500D03*
Y1360500D03*
X2286000Y1878000D03*
Y2122500D03*
Y2322500D03*
G54D14*
X545000Y2032000D03*
X471000Y3175000D03*
X291000D03*
X725000Y2032000D03*
X3519000Y2794000D03*
X3339000D03*
G54D15*
X254000Y3619500D03*
X508000D03*
G54D16*
X832000Y456500D03*
G54D17*
X1270000Y1651000D03*
X762000Y2730500D03*
X1841500Y1270000D03*
X1587500Y3365500D03*
G54D18*
X1270000Y2413000D03*
X929640Y2555240D03*
X825500Y2349500D03*
X1033780D03*
X1374140Y2618740D03*
X1478280Y2413000D03*
X2372360Y556260D03*
X2476500Y762000D03*
X2268220D03*
X2816860Y1826260D03*
X2712720Y2032000D03*
X2776220Y2540000D03*
Y2984500D03*
Y3556000D03*
X2921000Y2032000D03*
X2880360Y2334260D03*
X2984500Y2540000D03*
X2880360Y2778760D03*
X2984500Y2984500D03*
X2880360Y3350260D03*
X2984500Y3556000D03*
G54D19*
X1397000Y341500D03*
Y571500D03*
M02*
