G04 ================== begin FILE IDENTIFICATION RECORD ==================*
G04 Layout Name:  C:/Users/Cristiana/Desktop/PROIECT_CEF/PCB_CEFF.brd*
G04 Film Name:    SSTOP*
G04 File Format:  Gerber RS274X*
G04 File Origin:  Cadence Allegro 16.6-2015-S059*
G04 Origin Date:  Thu Dec 18 14:36:46 2025*
G04 *
G04 Layer:  REF DES/SILKSCREEN_TOP*
G04 Layer:  PACKAGE GEOMETRY/SILKSCREEN_TOP*
G04 Layer:  BOARD GEOMETRY/SILKSCREEN_TOP*
G04 *
G04 Offset:    (0.0000 0.0000)*
G04 Mirror:    No*
G04 Mode:      Positive*
G04 Rotation:  0*
G04 FullContactRelief:  No*
G04 UndefLineWidth:     0.1000*
G04 ================== end FILE IDENTIFICATION RECORD ====================*
%FSLAX25Y25*MOMM*%
%IR0*IPPOS*OFA0.00000B0.00000*MIA0B0*SFA1.00000B1.00000*%
%ADD10C,.2*%
%ADD11C,.01*%
%ADD12C,.1*%
G75*
%LPD*%
G75*
G54D10*
G01X500000Y855000D02*
Y745000D01*
G01X378000Y1567000D02*
Y1457000D01*
G01X444500Y2404500D02*
Y2294500D01*
G01X379000Y1890000D02*
X269000D01*
G01X864500Y316500D02*
Y206500D01*
X1364500D01*
Y236500D01*
G01X1114500Y571500D02*
Y346500D01*
G01X999500Y456500D02*
X1229500D01*
G01X1114500Y606500D02*
G03X964500Y456500I0J-150000D01*
G03X1119500Y306500I150081J0D01*
G03X1264500Y456500I-4915J149834D01*
G03X1114500Y606500I-150000J0D01*
G01X864500Y596500D02*
Y706500D01*
X1364500D01*
Y676500D01*
G01X817000Y1143000D02*
X707000D01*
G01X1198000Y1206500D02*
X1088000D01*
G01X944000Y3619500D02*
X834000D01*
G01X1325000D02*
X1215000D01*
G01X1841500Y372500D02*
Y262500D01*
G01X1364500Y481500D02*
Y431500D01*
G01X1405500Y1206500D02*
X1515500D01*
G01X1723000Y1778000D02*
X1833000D01*
G01X1726000Y3219500D02*
Y2569500D01*
X2386000D01*
Y3219500D01*
G01X2286000Y372500D02*
Y262500D01*
G01X2675500Y381000D02*
X2785500D01*
G01X2286000Y1134500D02*
Y1024500D01*
G01X2341000Y1778000D02*
X2231000D01*
G01X2722000Y1460500D02*
X2612000D01*
G01X2231000Y2222500D02*
X2341000D01*
G01X3735000Y1352500D02*
Y2002500D01*
X3075000D01*
Y1352500D01*
G01X3429000Y3293500D02*
Y3183500D01*
G54D11*
G01X404000Y986000D02*
X500000D01*
Y1066000D01*
G01X404000Y1290000D02*
X500000D01*
Y1210000D01*
G01X356000Y1098000D02*
Y1178000D01*
G01X364500Y2619000D02*
X268500D01*
Y2699000D01*
G01X412500Y2811000D02*
Y2731000D01*
G01X364500Y2923000D02*
X268500D01*
Y2843000D01*
G01X842000Y1826000D02*
X938000D01*
Y1746000D01*
G01X794000Y1634000D02*
Y1714000D01*
G01X842000Y1522000D02*
X938000D01*
Y1602000D01*
G01X1222000Y2493000D02*
Y2589000D01*
X1302000D01*
G01X777500Y2429500D02*
Y2525500D01*
X857500D01*
G01X969500Y2381500D02*
X889500D01*
G01X1081500Y2429500D02*
Y2525500D01*
X1001500D01*
G01X1253500Y2936500D02*
X1157500D01*
Y3016500D01*
G01X1253500Y3240500D02*
X1157500D01*
Y3160500D01*
G01X809000Y2936500D02*
X713000D01*
Y3016500D01*
G01X857000Y3128500D02*
Y3048500D01*
G01X809000Y3240500D02*
X713000D01*
Y3160500D01*
G01X1825000Y523500D02*
X1729000D01*
Y603500D01*
G01X1873000Y715500D02*
Y635500D01*
G01X1825000Y827500D02*
X1729000D01*
Y747500D01*
G01X1825000Y2047500D02*
X1729000D01*
Y2127500D01*
G01X1873000Y2239500D02*
Y2159500D01*
G01X1825000Y2351500D02*
X1729000D01*
Y2271500D01*
G01X1414000Y2445000D02*
X1334000D01*
G01X1526000Y2493000D02*
Y2589000D01*
X1446000D01*
G01X1301500Y3128500D02*
Y3048500D01*
G01X2524500Y682000D02*
Y586000D01*
X2444500D01*
G01X2332500Y730000D02*
X2412500D01*
G01X2220500Y682000D02*
Y586000D01*
X2300500D01*
G01X2777000Y2000000D02*
X2857000D01*
G01X2665000Y1952000D02*
Y1856000D01*
X2745000D01*
G01X2728500Y2460000D02*
Y2364000D01*
X2808500D01*
G01X2728500Y2904500D02*
Y2808500D01*
X2808500D01*
G01X2728500Y3476000D02*
Y3380000D01*
X2808500D01*
G01X2969000Y1952000D02*
Y1856000D01*
X2889000D01*
G01X3032500Y2460000D02*
Y2364000D01*
X2952500D01*
G01X2840500Y2508000D02*
X2920500D01*
G01X3032500Y2904500D02*
Y2808500D01*
X2952500D01*
G01X2840500Y2952500D02*
X2920500D01*
G01X3032500Y3476000D02*
Y3380000D01*
X2952500D01*
G01X2840500Y3524000D02*
X2920500D01*
G54D12*
G01X458510Y900000D02*
Y963500D01*
X475450D01*
X480870Y960320D01*
X484250Y956090D01*
X485610Y947620D01*
X484250Y939160D01*
X480190Y933870D01*
X475450Y930690D01*
X458510D01*
G01X475450D02*
X485610Y900000D01*
G01X515070Y952920D02*
X519130Y959270D01*
X523880Y962440D01*
X529290Y963500D01*
X536070Y961380D01*
X540810Y956090D01*
X542160Y949740D01*
X541490Y943390D01*
X538780Y938100D01*
X525230Y927520D01*
X519130Y920110D01*
X515070Y909520D01*
X513720Y900000D01*
X542160D01*
G01X200000Y1458510D02*
X136500D01*
Y1475450D01*
X139680Y1480870D01*
X143910Y1484250D01*
X152380Y1485610D01*
X160840Y1484250D01*
X166130Y1480190D01*
X169310Y1475450D01*
Y1458510D01*
G01Y1475450D02*
X200000Y1485610D01*
G01Y1527940D02*
X136500D01*
X149200Y1519810D01*
G01X200000D02*
Y1536070D01*
G01X280570Y1650000D02*
Y1713500D01*
X297510D01*
X302930Y1710320D01*
X306310Y1706090D01*
X307670Y1697620D01*
X306310Y1689160D01*
X302250Y1683870D01*
X297510Y1680690D01*
X280570D01*
G01X297510D02*
X307670Y1650000D01*
G01X337130Y1702920D02*
X341190Y1709270D01*
X345940Y1712440D01*
X351350Y1713500D01*
X358130Y1711380D01*
X362870Y1706090D01*
X364220Y1699740D01*
X363550Y1693390D01*
X360840Y1688100D01*
X347290Y1677520D01*
X341190Y1670110D01*
X337130Y1659520D01*
X335780Y1650000D01*
X364220D01*
G01X405880Y1713500D02*
X400460Y1711380D01*
X396400Y1706090D01*
X393690Y1699740D01*
X391660Y1691270D01*
X390980Y1681750D01*
X391660Y1672220D01*
X393690Y1663760D01*
X396400Y1657410D01*
X400460Y1652120D01*
X405880Y1650000D01*
X411300Y1652120D01*
X415360Y1657410D01*
X418070Y1663760D01*
X420100Y1672220D01*
X420780Y1681750D01*
X420100Y1691270D01*
X418070Y1699740D01*
X415360Y1706090D01*
X411300Y1711380D01*
X405880Y1713500D01*
G01X200000Y1220320D02*
X198940Y1214900D01*
X194710Y1210160D01*
X188360Y1206100D01*
X180950Y1203390D01*
X172480Y1202030D01*
X164020D01*
X155550Y1203390D01*
X148140Y1206100D01*
X141790Y1210160D01*
X137560Y1214900D01*
X136500Y1220320D01*
X137560Y1225740D01*
X141790Y1230480D01*
X148140Y1234540D01*
X155550Y1237250D01*
X164020Y1238610D01*
X172480D01*
X180950Y1237250D01*
X188360Y1234540D01*
X194710Y1230480D01*
X198940Y1225740D01*
X200000Y1220320D01*
G01X183070Y1225740D02*
X200000Y1233870D01*
G01X187300Y1261300D02*
X194710Y1265360D01*
X198940Y1270780D01*
X200000Y1276880D01*
X198940Y1282300D01*
X193650Y1287720D01*
X187300Y1291100D01*
X180950Y1291780D01*
X173540Y1290420D01*
X168250Y1285680D01*
X166130Y1280940D01*
Y1274850D01*
G01Y1280940D02*
X162960Y1285010D01*
X157670Y1288390D01*
X151320Y1289750D01*
X144970Y1288390D01*
X139680Y1285010D01*
X136500Y1278910D01*
X137560Y1272810D01*
X141790Y1266720D01*
G01X380570Y2450000D02*
Y2513500D01*
X397510D01*
X402930Y2510320D01*
X406310Y2506090D01*
X407670Y2497620D01*
X406310Y2489160D01*
X402250Y2483870D01*
X397510Y2480690D01*
X380570D01*
G01X397510D02*
X407670Y2450000D01*
G01X450000D02*
Y2513500D01*
X441870Y2500800D01*
G01Y2450000D02*
X458130D01*
G01X490980Y2459520D02*
X495040Y2454230D01*
X499780Y2451060D01*
X505880Y2450000D01*
X511980Y2452120D01*
X516720Y2456350D01*
X520100Y2463760D01*
X520780Y2472220D01*
X519430Y2480690D01*
X516040Y2485980D01*
X511300Y2490220D01*
X506560Y2491270D01*
X501820Y2490220D01*
X495720Y2485980D01*
X497750Y2513500D01*
X516040D01*
G01X136960Y3308210D02*
X132900Y3311380D01*
X128160Y3313500D01*
X122740D01*
X116640Y3310320D01*
X111900Y3305030D01*
X108510Y3298680D01*
X105800Y3288100D01*
X105130Y3278570D01*
X106480Y3269050D01*
X108510Y3262700D01*
X112580Y3256350D01*
X117320Y3252120D01*
X122060Y3250000D01*
X126800D01*
X131540Y3252120D01*
X135610Y3255290D01*
X138990Y3259520D01*
G01X177940Y3250000D02*
Y3313500D01*
X169810Y3300800D01*
G01Y3250000D02*
X186070D01*
G01X455420Y2750000D02*
Y2813500D01*
X468970D01*
X474380Y2810320D01*
X478450Y2806090D01*
X481840Y2799740D01*
X484540Y2792330D01*
X485220Y2781750D01*
X484540Y2771170D01*
X481840Y2763760D01*
X478450Y2757410D01*
X474380Y2753170D01*
X468970Y2750000D01*
X455420D01*
G01X526200D02*
Y2813500D01*
X518070Y2800800D01*
G01Y2750000D02*
X534330D01*
G01X520320Y3000000D02*
X514900Y3001060D01*
X510160Y3005290D01*
X506100Y3011640D01*
X503390Y3019050D01*
X502030Y3027520D01*
Y3035980D01*
X503390Y3044450D01*
X506100Y3051860D01*
X510160Y3058210D01*
X514900Y3062440D01*
X520320Y3063500D01*
X525740Y3062440D01*
X530480Y3058210D01*
X534540Y3051860D01*
X537250Y3044450D01*
X538610Y3035980D01*
Y3027520D01*
X537250Y3019050D01*
X534540Y3011640D01*
X530480Y3005290D01*
X525740Y3001060D01*
X520320Y3000000D01*
G01X525740Y3016930D02*
X533870Y3000000D01*
G01X561300Y3009520D02*
X565360Y3004230D01*
X570100Y3001060D01*
X576200Y3000000D01*
X582300Y3002120D01*
X587040Y3006350D01*
X590420Y3013760D01*
X591100Y3022220D01*
X589750Y3030690D01*
X586360Y3035980D01*
X581620Y3040220D01*
X576880Y3041270D01*
X572140Y3040220D01*
X566040Y3035980D01*
X568070Y3063500D01*
X586360D01*
G01X306770Y3412700D02*
X310160Y3406350D01*
X314220Y3402120D01*
X318970Y3400000D01*
X324380Y3402120D01*
X328450Y3406350D01*
X332510Y3412700D01*
X333870Y3421170D01*
Y3463500D01*
G01X376200Y3400000D02*
Y3463500D01*
X368070Y3450800D01*
G01Y3400000D02*
X384330D01*
G01X306000Y3769500D02*
Y3469500D01*
X456000D01*
Y3769500D01*
X306000D01*
G01X558510Y1000000D02*
Y1063500D01*
X575450D01*
X580870Y1060320D01*
X584250Y1056090D01*
X585610Y1047620D01*
X584250Y1039160D01*
X580190Y1033870D01*
X575450Y1030690D01*
X558510D01*
G01X575450D02*
X585610Y1000000D01*
G01X613040Y1012700D02*
X617100Y1005290D01*
X622520Y1001060D01*
X628620Y1000000D01*
X634040Y1001060D01*
X639460Y1006350D01*
X642840Y1012700D01*
X643520Y1019050D01*
X642160Y1026460D01*
X637420Y1031750D01*
X632680Y1033870D01*
X626590D01*
G01X632680D02*
X636750Y1037040D01*
X640130Y1042330D01*
X641490Y1048680D01*
X640130Y1055030D01*
X636750Y1060320D01*
X630650Y1063500D01*
X624550Y1062440D01*
X618460Y1058210D01*
G01X1008510Y1400000D02*
Y1463500D01*
X1025450D01*
X1030870Y1460320D01*
X1034250Y1456090D01*
X1035610Y1447620D01*
X1034250Y1439160D01*
X1030190Y1433870D01*
X1025450Y1430690D01*
X1008510D01*
G01X1025450D02*
X1035610Y1400000D01*
G01X1063040Y1409520D02*
X1067100Y1404230D01*
X1071840Y1401060D01*
X1077940Y1400000D01*
X1084040Y1402120D01*
X1088780Y1406350D01*
X1092160Y1413760D01*
X1092840Y1422220D01*
X1091490Y1430690D01*
X1088100Y1435980D01*
X1083360Y1440220D01*
X1078620Y1441270D01*
X1073880Y1440220D01*
X1067780Y1435980D01*
X1069810Y1463500D01*
X1088100D01*
G01X1182500Y1563500D02*
X1357500D01*
Y1738500D01*
X1182500D01*
Y1563500D01*
G01X570320Y1650000D02*
X564900Y1651060D01*
X560160Y1655290D01*
X556100Y1661640D01*
X553390Y1669050D01*
X552030Y1677520D01*
Y1685980D01*
X553390Y1694450D01*
X556100Y1701860D01*
X560160Y1708210D01*
X564900Y1712440D01*
X570320Y1713500D01*
X575740Y1712440D01*
X580480Y1708210D01*
X584540Y1701860D01*
X587250Y1694450D01*
X588610Y1685980D01*
Y1677520D01*
X587250Y1669050D01*
X584540Y1661640D01*
X580480Y1655290D01*
X575740Y1651060D01*
X570320Y1650000D01*
G01X575740Y1666930D02*
X583870Y1650000D01*
G01X634330D02*
Y1713500D01*
X609270Y1667990D01*
X643130D01*
G01X736960Y2158210D02*
X732900Y2161380D01*
X728160Y2163500D01*
X722740D01*
X716640Y2160320D01*
X711900Y2155030D01*
X708510Y2148680D01*
X705800Y2138100D01*
X705130Y2128570D01*
X706480Y2119050D01*
X708510Y2112700D01*
X712580Y2106350D01*
X717320Y2102120D01*
X722060Y2100000D01*
X726800D01*
X731540Y2102120D01*
X735610Y2105290D01*
X738990Y2109520D01*
G01X765070Y2152920D02*
X769130Y2159270D01*
X773880Y2162440D01*
X779290Y2163500D01*
X786070Y2161380D01*
X790810Y2156090D01*
X792160Y2149740D01*
X791490Y2143390D01*
X788780Y2138100D01*
X775230Y2127520D01*
X769130Y2120110D01*
X765070Y2109520D01*
X763720Y2100000D01*
X792160D01*
G01X670320Y2200000D02*
X664900Y2201060D01*
X660160Y2205290D01*
X656100Y2211640D01*
X653390Y2219050D01*
X652030Y2227520D01*
Y2235980D01*
X653390Y2244450D01*
X656100Y2251860D01*
X660160Y2258210D01*
X664900Y2262440D01*
X670320Y2263500D01*
X675740Y2262440D01*
X680480Y2258210D01*
X684540Y2251860D01*
X687250Y2244450D01*
X688610Y2235980D01*
Y2227520D01*
X687250Y2219050D01*
X684540Y2211640D01*
X680480Y2205290D01*
X675740Y2201060D01*
X670320Y2200000D01*
G01X675740Y2216930D02*
X683870Y2200000D01*
G01X726200D02*
Y2263500D01*
X718070Y2250800D01*
G01Y2200000D02*
X734330D01*
G01X620320Y2913500D02*
Y2850000D01*
G01X604740Y2913500D02*
X635900D01*
G01X662650Y2850000D02*
Y2913500D01*
X678910D01*
X684330Y2910320D01*
X688390Y2902920D01*
X689750Y2894450D01*
X688390Y2885980D01*
X685010Y2879630D01*
X678910Y2876460D01*
X662650D01*
G01X719210Y2902920D02*
X723270Y2909270D01*
X728020Y2912440D01*
X733430Y2913500D01*
X740210Y2911380D01*
X744950Y2906090D01*
X746300Y2899740D01*
X745630Y2893390D01*
X742920Y2888100D01*
X729370Y2877520D01*
X723270Y2870110D01*
X719210Y2859520D01*
X717860Y2850000D01*
X746300D01*
G01X674500Y2643000D02*
X849500D01*
Y2818000D01*
X674500D01*
Y2643000D01*
G01X1206500Y3276600D02*
X1201080Y3277660D01*
X1196340Y3281890D01*
X1192280Y3288240D01*
X1189570Y3295650D01*
X1188210Y3304120D01*
Y3312580D01*
X1189570Y3321050D01*
X1192280Y3328460D01*
X1196340Y3334810D01*
X1201080Y3339040D01*
X1206500Y3340100D01*
X1211920Y3339040D01*
X1216660Y3334810D01*
X1220720Y3328460D01*
X1223430Y3321050D01*
X1224790Y3312580D01*
Y3304120D01*
X1223430Y3295650D01*
X1220720Y3288240D01*
X1216660Y3281890D01*
X1211920Y3277660D01*
X1206500Y3276600D01*
G01X1211920Y3293530D02*
X1220050Y3276600D01*
G01X1249510Y3303060D02*
X1254250Y3310470D01*
X1258320Y3314700D01*
X1263730Y3316820D01*
X1268480Y3314700D01*
X1271860Y3310470D01*
X1274570Y3304120D01*
X1275250Y3296710D01*
X1274570Y3290360D01*
X1271860Y3284010D01*
X1267800Y3278720D01*
X1263060Y3276600D01*
X1257640Y3278720D01*
X1252900Y3285060D01*
X1250190Y3294590D01*
X1249510Y3305170D01*
X1250860Y3318930D01*
X1252900Y3326340D01*
X1256280Y3333750D01*
X1261030Y3339040D01*
X1265770Y3340100D01*
X1270510Y3337980D01*
X1273900Y3332690D01*
G01X1220320Y2600000D02*
X1214900Y2601060D01*
X1210160Y2605290D01*
X1206100Y2611640D01*
X1203390Y2619050D01*
X1202030Y2627520D01*
Y2635980D01*
X1203390Y2644450D01*
X1206100Y2651860D01*
X1210160Y2658210D01*
X1214900Y2662440D01*
X1220320Y2663500D01*
X1225740Y2662440D01*
X1230480Y2658210D01*
X1234540Y2651860D01*
X1237250Y2644450D01*
X1238610Y2635980D01*
Y2627520D01*
X1237250Y2619050D01*
X1234540Y2611640D01*
X1230480Y2605290D01*
X1225740Y2601060D01*
X1220320Y2600000D01*
G01X1225740Y2616930D02*
X1233870Y2600000D01*
G01X1263330Y2652920D02*
X1267390Y2659270D01*
X1272140Y2662440D01*
X1277550Y2663500D01*
X1284330Y2661380D01*
X1289070Y2656090D01*
X1290420Y2649740D01*
X1289750Y2643390D01*
X1287040Y2638100D01*
X1273490Y2627520D01*
X1267390Y2620110D01*
X1263330Y2609520D01*
X1261980Y2600000D01*
X1290420D01*
G01X800000Y3430570D02*
X736500D01*
Y3447510D01*
X739680Y3452930D01*
X743910Y3456310D01*
X752380Y3457670D01*
X760840Y3456310D01*
X766130Y3452250D01*
X769310Y3447510D01*
Y3430570D01*
G01Y3447510D02*
X800000Y3457670D01*
G01Y3500000D02*
X736500D01*
X749200Y3491870D01*
G01X800000D02*
Y3508130D01*
G01X787300Y3540980D02*
X794710Y3545040D01*
X798940Y3550460D01*
X800000Y3556560D01*
X798940Y3561980D01*
X793650Y3567400D01*
X787300Y3570780D01*
X780950Y3571460D01*
X773540Y3570100D01*
X768250Y3565360D01*
X766130Y3560620D01*
Y3554530D01*
G01Y3560620D02*
X762960Y3564690D01*
X757670Y3568070D01*
X751320Y3569430D01*
X744970Y3568070D01*
X739680Y3564690D01*
X736500Y3558590D01*
X737560Y3552490D01*
X741790Y3546400D01*
G01X1150000Y3430570D02*
X1086500D01*
Y3447510D01*
X1089680Y3452930D01*
X1093910Y3456310D01*
X1102380Y3457670D01*
X1110840Y3456310D01*
X1116130Y3452250D01*
X1119310Y3447510D01*
Y3430570D01*
G01Y3447510D02*
X1150000Y3457670D01*
G01Y3500000D02*
X1086500D01*
X1099200Y3491870D01*
G01X1150000D02*
Y3508130D01*
G01Y3564010D02*
X1086500D01*
X1132010Y3538950D01*
Y3572810D01*
G01X1808510Y150000D02*
Y213500D01*
X1825450D01*
X1830870Y210320D01*
X1834250Y206090D01*
X1835610Y197620D01*
X1834250Y189160D01*
X1830190Y183870D01*
X1825450Y180690D01*
X1808510D01*
G01X1825450D02*
X1835610Y150000D01*
G01X1865070Y176460D02*
X1869810Y183870D01*
X1873880Y188100D01*
X1879290Y190220D01*
X1884040Y188100D01*
X1887420Y183870D01*
X1890130Y177520D01*
X1890810Y170110D01*
X1890130Y163760D01*
X1887420Y157410D01*
X1883360Y152120D01*
X1878620Y150000D01*
X1873200Y152120D01*
X1868460Y158460D01*
X1865750Y167990D01*
X1865070Y178570D01*
X1866420Y192330D01*
X1868460Y199740D01*
X1871840Y207150D01*
X1876590Y212440D01*
X1881330Y213500D01*
X1886070Y211380D01*
X1889460Y206090D01*
G01X1506770Y450000D02*
Y513500D01*
X1523710D01*
X1529130Y510320D01*
X1532510Y506090D01*
X1533870Y497620D01*
X1532510Y489160D01*
X1528450Y483870D01*
X1523710Y480690D01*
X1506770D01*
G01X1523710D02*
X1533870Y450000D01*
G01X1576200D02*
Y513500D01*
X1568070Y500800D01*
G01Y450000D02*
X1584330D01*
G01X1630730D02*
X1632080Y463760D01*
X1634110Y475400D01*
X1636820Y485980D01*
X1640210Y497620D01*
X1645630Y513500D01*
X1618530D01*
G01X1855420Y850000D02*
Y913500D01*
X1868970D01*
X1874380Y910320D01*
X1878450Y906090D01*
X1881840Y899740D01*
X1884540Y892330D01*
X1885220Y881750D01*
X1884540Y871170D01*
X1881840Y863760D01*
X1878450Y857410D01*
X1874380Y853170D01*
X1868970Y850000D01*
X1855420D01*
G01X1911300Y862700D02*
X1915360Y855290D01*
X1920780Y851060D01*
X1926880Y850000D01*
X1932300Y851060D01*
X1937720Y856350D01*
X1941100Y862700D01*
X1941780Y869050D01*
X1940420Y876460D01*
X1935680Y881750D01*
X1930940Y883870D01*
X1924850D01*
G01X1930940D02*
X1935010Y887040D01*
X1938390Y892330D01*
X1939750Y898680D01*
X1938390Y905030D01*
X1935010Y910320D01*
X1928910Y913500D01*
X1922810Y912440D01*
X1916720Y908210D01*
G01X1508510Y1400000D02*
Y1463500D01*
X1525450D01*
X1530870Y1460320D01*
X1534250Y1456090D01*
X1535610Y1447620D01*
X1534250Y1439160D01*
X1530190Y1433870D01*
X1525450Y1430690D01*
X1508510D01*
G01X1525450D02*
X1535610Y1400000D01*
G01X1586070D02*
Y1463500D01*
X1561010Y1417990D01*
X1594870D01*
G01X1650000Y1730570D02*
X1586500D01*
Y1747510D01*
X1589680Y1752930D01*
X1593910Y1756310D01*
X1602380Y1757670D01*
X1610840Y1756310D01*
X1616130Y1752250D01*
X1619310Y1747510D01*
Y1730570D01*
G01Y1747510D02*
X1650000Y1757670D01*
G01Y1800000D02*
X1586500D01*
X1599200Y1791870D01*
G01X1650000D02*
Y1808130D01*
G01Y1855880D02*
X1586500D01*
X1599200Y1847750D01*
G01X1650000D02*
Y1864010D01*
G01X1370320Y1763500D02*
Y1700000D01*
G01X1354740Y1763500D02*
X1385900D01*
G01X1412650Y1700000D02*
Y1763500D01*
X1428910D01*
X1434330Y1760320D01*
X1438390Y1752920D01*
X1439750Y1744450D01*
X1438390Y1735980D01*
X1435010Y1729630D01*
X1428910Y1726460D01*
X1412650D01*
G01X1482080Y1700000D02*
Y1763500D01*
X1473950Y1750800D01*
G01Y1700000D02*
X1490210D01*
G01X1770320Y1463500D02*
Y1400000D01*
G01X1754740Y1463500D02*
X1785900D01*
G01X1812650Y1400000D02*
Y1463500D01*
X1828910D01*
X1834330Y1460320D01*
X1838390Y1452920D01*
X1839750Y1444450D01*
X1838390Y1435980D01*
X1835010Y1429630D01*
X1828910Y1426460D01*
X1812650D01*
G01X1890210Y1400000D02*
Y1463500D01*
X1865150Y1417990D01*
X1899010D01*
G01X1754000Y1182500D02*
X1929000D01*
Y1357500D01*
X1754000D01*
Y1182500D01*
G01X2030570Y2200000D02*
Y2263500D01*
X2047510D01*
X2052930Y2260320D01*
X2056310Y2256090D01*
X2057670Y2247620D01*
X2056310Y2239160D01*
X2052250Y2233870D01*
X2047510Y2230690D01*
X2030570D01*
G01X2047510D02*
X2057670Y2200000D01*
G01X2100000D02*
Y2263500D01*
X2091870Y2250800D01*
G01Y2200000D02*
X2108130D01*
G01X2143010Y2252920D02*
X2147070Y2259270D01*
X2151820Y2262440D01*
X2157230Y2263500D01*
X2164010Y2261380D01*
X2168750Y2256090D01*
X2170100Y2249740D01*
X2169430Y2243390D01*
X2166720Y2238100D01*
X2153170Y2227520D01*
X2147070Y2220110D01*
X2143010Y2209520D01*
X2141660Y2200000D01*
X2170100D01*
G01X1870320Y2400000D02*
X1864900Y2401060D01*
X1860160Y2405290D01*
X1856100Y2411640D01*
X1853390Y2419050D01*
X1852030Y2427520D01*
Y2435980D01*
X1853390Y2444450D01*
X1856100Y2451860D01*
X1860160Y2458210D01*
X1864900Y2462440D01*
X1870320Y2463500D01*
X1875740Y2462440D01*
X1880480Y2458210D01*
X1884540Y2451860D01*
X1887250Y2444450D01*
X1888610Y2435980D01*
Y2427520D01*
X1887250Y2419050D01*
X1884540Y2411640D01*
X1880480Y2405290D01*
X1875740Y2401060D01*
X1870320Y2400000D01*
G01X1875740Y2416930D02*
X1883870Y2400000D01*
G01X1926200D02*
X1930940Y2401060D01*
X1936360Y2404230D01*
X1939750Y2409520D01*
X1941100Y2416930D01*
X1939750Y2424340D01*
X1935680Y2430690D01*
X1929590Y2433870D01*
X1922810D01*
X1918750Y2435980D01*
X1915360Y2441270D01*
X1914010Y2448680D01*
X1916040Y2456090D01*
X1920780Y2461380D01*
X1926200Y2463500D01*
X1931620Y2461380D01*
X1936360Y2456090D01*
X1938390Y2448680D01*
X1937040Y2441270D01*
X1933650Y2435980D01*
X1929590Y2433870D01*
X1922810D01*
X1916720Y2430690D01*
X1912650Y2424340D01*
X1911300Y2416930D01*
X1912650Y2409520D01*
X1916040Y2404230D01*
X1921460Y2401060D01*
X1926200Y2400000D01*
G01X1770320Y3363500D02*
Y3300000D01*
G01X1754740Y3363500D02*
X1785900D01*
G01X1812650Y3300000D02*
Y3363500D01*
X1828910D01*
X1834330Y3360320D01*
X1838390Y3352920D01*
X1839750Y3344450D01*
X1838390Y3335980D01*
X1835010Y3329630D01*
X1828910Y3326460D01*
X1812650D01*
G01X1867180Y3312700D02*
X1871240Y3305290D01*
X1876660Y3301060D01*
X1882760Y3300000D01*
X1888180Y3301060D01*
X1893600Y3306350D01*
X1896980Y3312700D01*
X1897660Y3319050D01*
X1896300Y3326460D01*
X1891560Y3331750D01*
X1886820Y3333870D01*
X1880730D01*
G01X1886820D02*
X1890890Y3337040D01*
X1894270Y3342330D01*
X1895630Y3348680D01*
X1894270Y3355030D01*
X1890890Y3360320D01*
X1884790Y3363500D01*
X1878690Y3362440D01*
X1872600Y3358210D01*
G01X1500000Y3278000D02*
X1675000D01*
Y3453000D01*
X1500000D01*
Y3278000D01*
G01X2258510Y150000D02*
Y213500D01*
X2275450D01*
X2280870Y210320D01*
X2284250Y206090D01*
X2285610Y197620D01*
X2284250Y189160D01*
X2280190Y183870D01*
X2275450Y180690D01*
X2258510D01*
G01X2275450D02*
X2285610Y150000D01*
G01X2326590D02*
X2327940Y163760D01*
X2329970Y175400D01*
X2332680Y185980D01*
X2336070Y197620D01*
X2341490Y213500D01*
X2314390D01*
G01X2508510Y450000D02*
Y513500D01*
X2525450D01*
X2530870Y510320D01*
X2534250Y506090D01*
X2535610Y497620D01*
X2534250Y489160D01*
X2530190Y483870D01*
X2525450Y480690D01*
X2508510D01*
G01X2525450D02*
X2535610Y450000D01*
G01X2577940D02*
X2582680Y451060D01*
X2588100Y454230D01*
X2591490Y459520D01*
X2592840Y466930D01*
X2591490Y474340D01*
X2587420Y480690D01*
X2581330Y483870D01*
X2574550D01*
X2570490Y485980D01*
X2567100Y491270D01*
X2565750Y498680D01*
X2567780Y506090D01*
X2572520Y511380D01*
X2577940Y513500D01*
X2583360Y511380D01*
X2588100Y506090D01*
X2590130Y498680D01*
X2588780Y491270D01*
X2585390Y485980D01*
X2581330Y483870D01*
X2574550D01*
X2568460Y480690D01*
X2564390Y474340D01*
X2563040Y466930D01*
X2564390Y459520D01*
X2567780Y454230D01*
X2573200Y451060D01*
X2577940Y450000D01*
G01X2180570Y900000D02*
Y963500D01*
X2197510D01*
X2202930Y960320D01*
X2206310Y956090D01*
X2207670Y947620D01*
X2206310Y939160D01*
X2202250Y933870D01*
X2197510Y930690D01*
X2180570D01*
G01X2197510D02*
X2207670Y900000D01*
G01X2250000D02*
Y963500D01*
X2241870Y950800D01*
G01Y900000D02*
X2258130D01*
G01X2305880D02*
X2310620Y901060D01*
X2316040Y904230D01*
X2319430Y909520D01*
X2320780Y916930D01*
X2319430Y924340D01*
X2315360Y930690D01*
X2309270Y933870D01*
X2302490D01*
X2298430Y935980D01*
X2295040Y941270D01*
X2293690Y948680D01*
X2295720Y956090D01*
X2300460Y961380D01*
X2305880Y963500D01*
X2311300Y961380D01*
X2316040Y956090D01*
X2318070Y948680D01*
X2316720Y941270D01*
X2313330Y935980D01*
X2309270Y933870D01*
X2302490D01*
X2296400Y930690D01*
X2292330Y924340D01*
X2290980Y916930D01*
X2292330Y909520D01*
X2295720Y904230D01*
X2301140Y901060D01*
X2305880Y900000D01*
G01X2184400Y620100D02*
X2120900D01*
Y633650D01*
X2124080Y639060D01*
X2128310Y643130D01*
X2134660Y646520D01*
X2142070Y649220D01*
X2152650Y649900D01*
X2163230Y649220D01*
X2170640Y646520D01*
X2176990Y643130D01*
X2181230Y639060D01*
X2184400Y633650D01*
Y620100D01*
G01X2131480Y678010D02*
X2125130Y682070D01*
X2121960Y686820D01*
X2120900Y692230D01*
X2123020Y699010D01*
X2128310Y703750D01*
X2134660Y705100D01*
X2141010Y704430D01*
X2146300Y701720D01*
X2156880Y688170D01*
X2164290Y682070D01*
X2174880Y678010D01*
X2184400Y676660D01*
Y705100D01*
G01X2450000Y1730570D02*
X2386500D01*
Y1747510D01*
X2389680Y1752930D01*
X2393910Y1756310D01*
X2402380Y1757670D01*
X2410840Y1756310D01*
X2416130Y1752250D01*
X2419310Y1747510D01*
Y1730570D01*
G01Y1747510D02*
X2450000Y1757670D01*
G01Y1800000D02*
X2386500D01*
X2399200Y1791870D01*
G01X2450000D02*
Y1808130D01*
G01X2386500Y1855880D02*
X2388620Y1850460D01*
X2393910Y1846400D01*
X2400260Y1843690D01*
X2408730Y1841660D01*
X2418250Y1840980D01*
X2427780Y1841660D01*
X2436240Y1843690D01*
X2442590Y1846400D01*
X2447880Y1850460D01*
X2450000Y1855880D01*
X2447880Y1861300D01*
X2442590Y1865360D01*
X2436240Y1868070D01*
X2427780Y1870100D01*
X2418250Y1870780D01*
X2408730Y1870100D01*
X2400260Y1868070D01*
X2393910Y1865360D01*
X2388620Y1861300D01*
X2386500Y1855880D01*
G01X2500000Y1380570D02*
X2436500D01*
Y1397510D01*
X2439680Y1402930D01*
X2443910Y1406310D01*
X2452380Y1407670D01*
X2460840Y1406310D01*
X2466130Y1402250D01*
X2469310Y1397510D01*
Y1380570D01*
G01Y1397510D02*
X2500000Y1407670D01*
G01Y1450000D02*
X2436500D01*
X2449200Y1441870D01*
G01X2500000D02*
Y1458130D01*
G01X2492590Y1494360D02*
X2497880Y1499110D01*
X2500000Y1504530D01*
X2497880Y1509940D01*
X2491540Y1514690D01*
X2482010Y1518070D01*
X2472480Y1519430D01*
X2460840D01*
X2451320Y1518070D01*
X2442850Y1514690D01*
X2438620Y1510620D01*
X2436500Y1505880D01*
X2438620Y1500460D01*
X2442850Y1496400D01*
X2449200Y1493690D01*
X2457670Y1492330D01*
X2465070Y1493690D01*
X2472480Y1497070D01*
X2476720Y1501140D01*
X2477780Y1505880D01*
X2475660Y1511300D01*
X2470370Y1515360D01*
X2460840Y1519430D01*
G01X2628900Y1890100D02*
X2565400D01*
Y1903650D01*
X2568580Y1909060D01*
X2572810Y1913130D01*
X2579160Y1916520D01*
X2586570Y1919220D01*
X2597150Y1919900D01*
X2607730Y1919220D01*
X2615140Y1916520D01*
X2621490Y1913130D01*
X2625730Y1909060D01*
X2628900Y1903650D01*
Y1890100D01*
G01Y1959530D02*
X2615140Y1960880D01*
X2603500Y1962910D01*
X2592920Y1965620D01*
X2581280Y1969010D01*
X2565400Y1974430D01*
Y1947330D01*
G01X2800000Y3255420D02*
X2736500D01*
Y3268970D01*
X2739680Y3274380D01*
X2743910Y3278450D01*
X2750260Y3281840D01*
X2757670Y3284540D01*
X2768250Y3285220D01*
X2778830Y3284540D01*
X2786240Y3281840D01*
X2792590Y3278450D01*
X2796830Y3274380D01*
X2800000Y3268970D01*
Y3255420D01*
G01Y3334330D02*
X2736500D01*
X2782010Y3309270D01*
Y3343130D01*
G01X2470320Y3700000D02*
X2464900Y3701060D01*
X2460160Y3705290D01*
X2456100Y3711640D01*
X2453390Y3719050D01*
X2452030Y3727520D01*
Y3735980D01*
X2453390Y3744450D01*
X2456100Y3751860D01*
X2460160Y3758210D01*
X2464900Y3762440D01*
X2470320Y3763500D01*
X2475740Y3762440D01*
X2480480Y3758210D01*
X2484540Y3751860D01*
X2487250Y3744450D01*
X2488610Y3735980D01*
Y3727520D01*
X2487250Y3719050D01*
X2484540Y3711640D01*
X2480480Y3705290D01*
X2475740Y3701060D01*
X2470320Y3700000D01*
G01X2475740Y3716930D02*
X2483870Y3700000D01*
G01X2524850D02*
X2526200Y3713760D01*
X2528230Y3725400D01*
X2530940Y3735980D01*
X2534330Y3747620D01*
X2539750Y3763500D01*
X2512650D01*
G01X3006770Y150000D02*
Y213500D01*
X3023030D01*
X3028450Y210320D01*
X3032510Y202920D01*
X3033870Y194450D01*
X3032510Y185980D01*
X3029130Y179630D01*
X3023030Y176460D01*
X3006770D01*
G01X3076200Y150000D02*
Y213500D01*
X3068070Y200800D01*
G01Y150000D02*
X3084330D01*
G01X3117180D02*
Y213500D01*
X3130730D01*
X3136140Y210320D01*
X3140210Y206090D01*
X3143600Y199740D01*
X3146300Y192330D01*
X3146980Y181750D01*
X3146300Y171170D01*
X3143600Y163760D01*
X3140210Y157410D01*
X3136140Y153170D01*
X3130730Y150000D01*
X3117180D01*
G01X3202860Y208210D02*
X3198800Y211380D01*
X3194060Y213500D01*
X3188640D01*
X3182540Y210320D01*
X3177800Y205030D01*
X3174410Y198680D01*
X3171700Y188100D01*
X3171030Y178570D01*
X3172380Y169050D01*
X3174410Y162700D01*
X3178480Y156350D01*
X3183220Y152120D01*
X3187960Y150000D01*
X3192700D01*
X3197440Y152120D01*
X3201510Y155290D01*
X3204890Y159520D01*
G01X3257390Y150000D02*
X3230290D01*
Y213500D01*
X3257390D01*
G01X3246550Y182810D02*
X3230290D01*
G01X3286850Y202920D02*
X3290910Y209270D01*
X3295660Y212440D01*
X3301070Y213500D01*
X3307850Y211380D01*
X3312590Y206090D01*
X3313940Y199740D01*
X3313270Y193390D01*
X3310560Y188100D01*
X3297010Y177520D01*
X3290910Y170110D01*
X3286850Y159520D01*
X3285500Y150000D01*
X3313940D01*
G01X3355600Y213500D02*
X3350180Y211380D01*
X3346120Y206090D01*
X3343410Y199740D01*
X3341380Y191270D01*
X3340700Y181750D01*
X3341380Y172220D01*
X3343410Y163760D01*
X3346120Y157410D01*
X3350180Y152120D01*
X3355600Y150000D01*
X3361020Y152120D01*
X3365080Y157410D01*
X3367790Y163760D01*
X3369820Y172220D01*
X3370500Y181750D01*
X3369820Y191270D01*
X3367790Y199740D01*
X3365080Y206090D01*
X3361020Y211380D01*
X3355600Y213500D01*
G01X3398610Y202920D02*
X3402670Y209270D01*
X3407420Y212440D01*
X3412830Y213500D01*
X3419610Y211380D01*
X3424350Y206090D01*
X3425700Y199740D01*
X3425030Y193390D01*
X3422320Y188100D01*
X3408770Y177520D01*
X3402670Y170110D01*
X3398610Y159520D01*
X3397260Y150000D01*
X3425700D01*
G01X3452460Y159520D02*
X3456520Y154230D01*
X3461260Y151060D01*
X3467360Y150000D01*
X3473460Y152120D01*
X3478200Y156350D01*
X3481580Y163760D01*
X3482260Y172220D01*
X3480910Y180690D01*
X3477520Y185980D01*
X3472780Y190220D01*
X3468040Y191270D01*
X3463300Y190220D01*
X3457200Y185980D01*
X3459230Y213500D01*
X3477520D01*
G01X3514430Y171170D02*
X3532050D01*
G01X3566250Y202920D02*
X3570310Y209270D01*
X3575060Y212440D01*
X3580470Y213500D01*
X3587250Y211380D01*
X3591990Y206090D01*
X3593340Y199740D01*
X3592670Y193390D01*
X3589960Y188100D01*
X3576410Y177520D01*
X3570310Y170110D01*
X3566250Y159520D01*
X3564900Y150000D01*
X3593340D01*
G01X3635000Y213500D02*
X3629580Y211380D01*
X3625520Y206090D01*
X3622810Y199740D01*
X3620780Y191270D01*
X3620100Y181750D01*
X3620780Y172220D01*
X3622810Y163760D01*
X3625520Y157410D01*
X3629580Y152120D01*
X3635000Y150000D01*
X3640420Y152120D01*
X3644480Y157410D01*
X3647190Y163760D01*
X3649220Y172220D01*
X3649900Y181750D01*
X3649220Y191270D01*
X3647190Y199740D01*
X3644480Y206090D01*
X3640420Y211380D01*
X3635000Y213500D01*
G01X3678010Y202920D02*
X3682070Y209270D01*
X3686820Y212440D01*
X3692230Y213500D01*
X3699010Y211380D01*
X3703750Y206090D01*
X3705100Y199740D01*
X3704430Y193390D01*
X3701720Y188100D01*
X3688170Y177520D01*
X3682070Y170110D01*
X3678010Y159520D01*
X3676660Y150000D01*
X3705100D01*
G01X3733890Y176460D02*
X3738630Y183870D01*
X3742700Y188100D01*
X3748110Y190220D01*
X3752860Y188100D01*
X3756240Y183870D01*
X3758950Y177520D01*
X3759630Y170110D01*
X3758950Y163760D01*
X3756240Y157410D01*
X3752180Y152120D01*
X3747440Y150000D01*
X3742020Y152120D01*
X3737280Y158460D01*
X3734570Y167990D01*
X3733890Y178570D01*
X3735240Y192330D01*
X3737280Y199740D01*
X3740660Y207150D01*
X3745410Y212440D01*
X3750150Y213500D01*
X3754890Y211380D01*
X3758280Y206090D01*
G01X3020320Y513500D02*
Y450000D01*
G01X3004740Y513500D02*
X3035900D01*
G01X3068070D02*
X3084330D01*
G01X3076200D02*
Y450000D01*
G01X3068070D02*
X3084330D01*
G01X3114470D02*
Y513500D01*
X3132080Y460580D01*
X3149690Y513500D01*
Y450000D01*
G01X3174410D02*
Y513500D01*
X3190670D01*
X3196090Y510320D01*
X3200150Y502920D01*
X3201510Y494450D01*
X3200150Y485980D01*
X3196770Y479630D01*
X3190670Y476460D01*
X3174410D01*
G01X3226910Y450000D02*
X3243840Y513500D01*
X3260770Y450000D01*
G01X3254680Y472220D02*
X3233000D01*
G01X3284820Y513500D02*
Y467990D01*
X3287530Y458460D01*
X3292950Y452120D01*
X3299720Y450000D01*
X3306490Y452120D01*
X3311910Y458460D01*
X3314620Y467990D01*
Y513500D01*
G01X3035220Y358210D02*
X3031160Y361380D01*
X3026420Y363500D01*
X3021000D01*
X3014900Y360320D01*
X3010160Y355030D01*
X3006770Y348680D01*
X3004060Y338100D01*
X3003390Y328570D01*
X3004740Y319050D01*
X3006770Y312700D01*
X3010840Y306350D01*
X3015580Y302120D01*
X3020320Y300000D01*
X3025060D01*
X3029800Y302120D01*
X3033870Y305290D01*
X3037250Y309520D01*
G01X3062650Y300000D02*
Y363500D01*
X3079590D01*
X3085010Y360320D01*
X3088390Y356090D01*
X3089750Y347620D01*
X3088390Y339160D01*
X3084330Y333870D01*
X3079590Y330690D01*
X3062650D01*
G01X3079590D02*
X3089750Y300000D01*
G01X3123950Y363500D02*
X3140210D01*
G01X3132080D02*
Y300000D01*
G01X3123950D02*
X3140210D01*
G01X3173740Y308460D02*
X3179150Y303170D01*
X3185250Y300000D01*
X3190670D01*
X3196090Y303170D01*
X3200150Y308460D01*
X3202180Y315880D01*
X3200830Y323280D01*
X3197440Y329630D01*
X3191350Y333870D01*
X3183220Y335980D01*
X3178480Y340220D01*
X3176440Y347620D01*
X3177800Y355030D01*
X3181190Y360320D01*
X3185930Y363500D01*
X3190670D01*
X3195410Y361380D01*
X3199480Y356090D01*
G01X3243840Y363500D02*
Y300000D01*
G01X3228260Y363500D02*
X3259420D01*
G01X3291590D02*
X3307850D01*
G01X3299720D02*
Y300000D01*
G01X3291590D02*
X3307850D01*
G01X3338670D02*
X3355600Y363500D01*
X3372530Y300000D01*
G01X3366440Y322220D02*
X3344760D01*
G01X3395900Y300000D02*
Y363500D01*
X3427060Y300000D01*
Y363500D01*
G01X3450430Y300000D02*
X3467360Y363500D01*
X3484290Y300000D01*
G01X3478200Y322220D02*
X3456520D01*
G01X3514430Y321170D02*
X3532050D01*
G01X3561510Y300000D02*
Y363500D01*
X3579120Y310580D01*
X3596730Y363500D01*
Y300000D01*
G01X3618070D02*
X3635000Y363500D01*
X3651930Y300000D01*
G01X3645840Y322220D02*
X3624160D01*
G01X3677330Y300000D02*
Y363500D01*
X3694270D01*
X3699690Y360320D01*
X3703070Y356090D01*
X3704430Y347620D01*
X3703070Y339160D01*
X3699010Y333870D01*
X3694270Y330690D01*
X3677330D01*
G01X3694270D02*
X3704430Y300000D01*
G01X3738630Y363500D02*
X3754890D01*
G01X3746760D02*
Y300000D01*
G01X3738630D02*
X3754890D01*
G01X3785710D02*
X3802640Y363500D01*
X3819570Y300000D01*
G01X3813480Y322220D02*
X3791800D01*
G01X2970320Y950000D02*
X2964900Y951060D01*
X2960160Y955290D01*
X2956100Y961640D01*
X2953390Y969050D01*
X2952030Y977520D01*
Y985980D01*
X2953390Y994450D01*
X2956100Y1001860D01*
X2960160Y1008210D01*
X2964900Y1012440D01*
X2970320Y1013500D01*
X2975740Y1012440D01*
X2980480Y1008210D01*
X2984540Y1001860D01*
X2987250Y994450D01*
X2988610Y985980D01*
Y977520D01*
X2987250Y969050D01*
X2984540Y961640D01*
X2980480Y955290D01*
X2975740Y951060D01*
X2970320Y950000D01*
G01X2975740Y966930D02*
X2983870Y950000D01*
G01X3014680Y957410D02*
X3019430Y952120D01*
X3024850Y950000D01*
X3030260Y952120D01*
X3035010Y958460D01*
X3038390Y967990D01*
X3039750Y977520D01*
Y989160D01*
X3038390Y998680D01*
X3035010Y1007150D01*
X3030940Y1011380D01*
X3026200Y1013500D01*
X3020780Y1011380D01*
X3016720Y1007150D01*
X3014010Y1000800D01*
X3012650Y992330D01*
X3014010Y984930D01*
X3017390Y977520D01*
X3021460Y973280D01*
X3026200Y972220D01*
X3031620Y974340D01*
X3035680Y979630D01*
X3039750Y989160D01*
G01X3506770Y2562700D02*
X3510160Y2556350D01*
X3514220Y2552120D01*
X3518970Y2550000D01*
X3524380Y2552120D01*
X3528450Y2556350D01*
X3532510Y2562700D01*
X3533870Y2571170D01*
Y2613500D01*
G01X3563330Y2602920D02*
X3567390Y2609270D01*
X3572140Y2612440D01*
X3577550Y2613500D01*
X3584330Y2611380D01*
X3589070Y2606090D01*
X3590420Y2599740D01*
X3589750Y2593390D01*
X3587040Y2588100D01*
X3573490Y2577520D01*
X3567390Y2570110D01*
X3563330Y2559520D01*
X3561980Y2550000D01*
X3590420D01*
G01X3279000Y2274500D02*
X3579000D01*
Y2424500D01*
X3279000D01*
Y2274500D01*
G01X3150000Y2455420D02*
X3086500D01*
Y2468970D01*
X3089680Y2474380D01*
X3093910Y2478450D01*
X3100260Y2481840D01*
X3107670Y2484540D01*
X3118250Y2485220D01*
X3128830Y2484540D01*
X3136240Y2481840D01*
X3142590Y2478450D01*
X3146830Y2474380D01*
X3150000Y2468970D01*
Y2455420D01*
G01X3123540Y2513330D02*
X3116130Y2518070D01*
X3111900Y2522140D01*
X3109780Y2527550D01*
X3111900Y2532300D01*
X3116130Y2535680D01*
X3122480Y2538390D01*
X3129890Y2539070D01*
X3136240Y2538390D01*
X3142590Y2535680D01*
X3147880Y2531620D01*
X3150000Y2526880D01*
X3147880Y2521460D01*
X3141540Y2516720D01*
X3132010Y2514010D01*
X3121430Y2513330D01*
X3107670Y2514680D01*
X3100260Y2516720D01*
X3092850Y2520100D01*
X3087560Y2524850D01*
X3086500Y2529590D01*
X3088620Y2534330D01*
X3093910Y2537720D01*
G01X3336960Y2958210D02*
X3332900Y2961380D01*
X3328160Y2963500D01*
X3322740D01*
X3316640Y2960320D01*
X3311900Y2955030D01*
X3308510Y2948680D01*
X3305800Y2938100D01*
X3305130Y2928570D01*
X3306480Y2919050D01*
X3308510Y2912700D01*
X3312580Y2906350D01*
X3317320Y2902120D01*
X3322060Y2900000D01*
X3326800D01*
X3331540Y2902120D01*
X3335610Y2905290D01*
X3338990Y2909520D01*
G01X3363040Y2912700D02*
X3367100Y2905290D01*
X3372520Y2901060D01*
X3378620Y2900000D01*
X3384040Y2901060D01*
X3389460Y2906350D01*
X3392840Y2912700D01*
X3393520Y2919050D01*
X3392160Y2926460D01*
X3387420Y2931750D01*
X3382680Y2933870D01*
X3376590D01*
G01X3382680D02*
X3386750Y2937040D01*
X3390130Y2942330D01*
X3391490Y2948680D01*
X3390130Y2955030D01*
X3386750Y2960320D01*
X3380650Y2963500D01*
X3374550Y2962440D01*
X3368460Y2958210D01*
G01X3150000Y2905420D02*
X3086500D01*
Y2918970D01*
X3089680Y2924380D01*
X3093910Y2928450D01*
X3100260Y2931840D01*
X3107670Y2934540D01*
X3118250Y2935220D01*
X3128830Y2934540D01*
X3136240Y2931840D01*
X3142590Y2928450D01*
X3146830Y2924380D01*
X3150000Y2918970D01*
Y2905420D01*
G01X3140480Y2961300D02*
X3145770Y2965360D01*
X3148940Y2970100D01*
X3150000Y2976200D01*
X3147880Y2982300D01*
X3143650Y2987040D01*
X3136240Y2990420D01*
X3127780Y2991100D01*
X3119310Y2989750D01*
X3114020Y2986360D01*
X3109780Y2981620D01*
X3108730Y2976880D01*
X3109780Y2972140D01*
X3114020Y2966040D01*
X3086500Y2968070D01*
Y2986360D01*
G01X3628450Y450000D02*
Y513500D01*
X3603390Y467990D01*
X3637250D01*
G01X3661300Y462700D02*
X3665360Y455290D01*
X3670780Y451060D01*
X3676880Y450000D01*
X3682300Y451060D01*
X3687720Y456350D01*
X3691100Y462700D01*
X3691780Y469050D01*
X3690420Y476460D01*
X3685680Y481750D01*
X3680940Y483870D01*
X3674850D01*
G01X3680940D02*
X3685010Y487040D01*
X3688390Y492330D01*
X3689750Y498680D01*
X3688390Y505030D01*
X3685010Y510320D01*
X3678910Y513500D01*
X3672810Y512440D01*
X3666720Y508210D01*
G01X3732080Y450000D02*
Y513500D01*
X3723950Y500800D01*
G01Y450000D02*
X3740210D01*
G01X3775090D02*
Y513500D01*
X3800830D01*
G01X3791350Y482810D02*
X3775090D01*
G01X3658510Y3200000D02*
Y3263500D01*
X3675450D01*
X3680870Y3260320D01*
X3684250Y3256090D01*
X3685610Y3247620D01*
X3684250Y3239160D01*
X3680190Y3233870D01*
X3675450Y3230690D01*
X3658510D01*
G01X3675450D02*
X3685610Y3200000D01*
G01X3716420Y3207410D02*
X3721170Y3202120D01*
X3726590Y3200000D01*
X3732000Y3202120D01*
X3736750Y3208460D01*
X3740130Y3217990D01*
X3741490Y3227520D01*
Y3239160D01*
X3740130Y3248680D01*
X3736750Y3257150D01*
X3732680Y3261380D01*
X3727940Y3263500D01*
X3722520Y3261380D01*
X3718460Y3257150D01*
X3715750Y3250800D01*
X3714390Y3242330D01*
X3715750Y3234930D01*
X3719130Y3227520D01*
X3723200Y3223280D01*
X3727940Y3222220D01*
X3733360Y3224340D01*
X3737420Y3229630D01*
X3741490Y3239160D01*
M02*
